<svg width="32" height="32" viewBox="0 0 32 32" fill="none" xmlns="http://www.w3.org/2000/svg">
<path d="M29.4817 8.62407L19.4817 3.12407C19.334 3.04284 19.1682 3.00024 18.9997 3.00024C18.8312 3.00024 18.6654 3.04284 18.5177 3.12407L8.51769 8.62407C8.3609 8.7104 8.23016 8.83722 8.1391 8.99131C8.04804 9.14539 8 9.32109 8 9.50007C8 9.67905 8.04804 9.85475 8.1391 10.0088C8.23016 10.1629 8.3609 10.2897 8.51769 10.3761L17.9997 15.5911V26.3101L14.9637 24.6401L13.9997 26.3911L18.5177 28.8761C18.6653 28.9575 18.8311 29.0002 18.9997 29.0002C19.1683 29.0002 19.3341 28.9575 19.4817 28.8761L29.4817 23.3761C29.6385 23.2898 29.7693 23.163 29.8605 23.0089C29.9516 22.8548 29.9997 22.6791 29.9997 22.5001V9.50007C29.9997 9.32106 29.9516 9.14534 29.8605 8.99125C29.7693 8.83716 29.6385 8.71036 29.4817 8.62407ZM18.9997 5.14207L26.9247 9.50007L18.9997 13.8581L11.0747 9.50007L18.9997 5.14207ZM27.9997 21.9091L19.9997 26.3091V15.5901L27.9997 11.1901V21.9091Z" fill="white"/>
<path d="M10 16H2V14H10V16ZM12 24H4V22H12V24ZM14 20H6V18H14V20Z" fill="white"/>
</svg>
