<svg width="32" height="32" viewBox="0 0 32 32" fill="none" xmlns="http://www.w3.org/2000/svg">
<path d="M16.4996 14H19.9996V12H17.9996V11H15.9996V12.05C15.392 12.1734 14.8519 12.5181 14.4842 13.0173C14.1165 13.5164 13.9474 14.1344 14.0097 14.7512C14.072 15.3681 14.3613 15.9398 14.8214 16.3553C15.2815 16.7709 15.8796 17.0006 16.4996 17H17.4996C17.6322 17 17.7594 17.0527 17.8531 17.1464C17.9469 17.2402 17.9996 17.3674 17.9996 17.5C17.9996 17.6326 17.9469 17.7598 17.8531 17.8536C17.7594 17.9473 17.6322 18 17.4996 18H13.9996V20H15.9996V21H17.9996V19.95C18.6072 19.8266 19.1472 19.4819 19.5149 18.9827C19.8826 18.4836 20.0518 17.8656 19.9894 17.2488C19.9271 16.6319 19.6379 16.0602 19.1778 15.6447C18.7177 15.2291 18.1196 14.9994 17.4996 15H16.4996C16.367 15 16.2398 14.9473 16.146 14.8536C16.0523 14.7598 15.9996 14.6326 15.9996 14.5C15.9996 14.3674 16.0523 14.2402 16.146 14.1464C16.2398 14.0527 16.367 14 16.4996 14Z" fill="white"/>
<path d="M29 13H26.98C26.9513 12.2099 26.7607 11.4342 26.4201 10.7207C26.0796 10.0072 25.5962 9.3712 25 8.852V5C25 4.81429 24.9483 4.63225 24.8507 4.47427C24.753 4.31629 24.6133 4.18863 24.4472 4.10557C24.2811 4.02252 24.0952 3.98736 23.9102 4.00404C23.7252 4.02072 23.5486 4.08857 23.4 4.2L19.667 7H15C9.49 7 5.537 10.241 5.052 15H5C4.73478 15 4.48043 14.8946 4.29289 14.7071C4.10536 14.5196 4 14.2652 4 14V12H2V14C2.00079 14.7954 2.31712 15.558 2.87956 16.1204C3.44199 16.6829 4.20459 16.9992 5 17H5.07C5.21502 18.3113 5.64118 19.5758 6.3194 20.7074C6.99762 21.839 7.91195 22.8109 9 23.557V27C9 27.2652 9.10536 27.5196 9.29289 27.7071C9.48043 27.8946 9.73478 28 10 28H14C14.2652 28 14.5196 27.8946 14.7071 27.7071C14.8946 27.5196 15 27.2652 15 27V25H18V27C18 27.2652 18.1054 27.5196 18.2929 27.7071C18.4804 27.8946 18.7348 28 19 28H23C23.2652 28 23.5196 27.8946 23.7071 27.7071C23.8946 27.5196 24 27.2652 24 27V23.637C24.7223 23.2945 25.3539 22.7869 25.8437 22.155C26.3334 21.5232 26.6675 20.7849 26.819 20H29C29.2652 20 29.5196 19.8946 29.7071 19.7071C29.8946 19.5196 30 19.2652 30 19V14C30 13.7348 29.8946 13.4804 29.7071 13.2929C29.5196 13.1054 29.2652 13 29 13ZM28 18H25.124C24.819 20.753 24.3 21.485 22 22.315V26H20V23H13V26H11V22.378C9.7959 21.8051 8.78007 20.9009 8.07161 19.7712C7.36314 18.6416 6.99141 17.3334 7 16C7 11.165 11.018 9 15 9H20.333L23 7V9.776C25.418 11.636 24.913 12.962 25.018 15H28V18Z" fill="white"/>
</svg>
