<svg width="32" height="32" viewBox="0 0 32 32" fill="none" xmlns="http://www.w3.org/2000/svg">
<path d="M25.334 11.95L26.54 10.744C26.7023 10.5837 26.9077 10.474 27.1312 10.4282C27.3547 10.3824 27.5867 10.4025 27.799 10.486L29.269 11.072C29.4837 11.1595 29.6676 11.3085 29.7977 11.5003C29.9278 11.6922 29.9982 11.9182 30 12.15V14.842C29.9974 15.1516 29.8719 15.4475 29.6512 15.6646C29.4305 15.8818 29.1326 16.0024 28.823 16L28.773 15.998C18.477 15.358 16.4 6.636 16.007 3.298C15.99 3.14553 16.0033 2.99122 16.046 2.84387C16.0887 2.69652 16.16 2.55902 16.2558 2.43923C16.3516 2.31944 16.4701 2.2197 16.6045 2.14571C16.7389 2.07172 16.8865 2.02492 17.039 2.008C17.0841 2.00265 17.1295 1.99998 17.175 2H19.775C20.0069 2.00084 20.2332 2.07098 20.425 2.20141C20.6167 2.33184 20.7651 2.51662 20.851 2.732L21.438 4.202C21.5243 4.41364 21.5463 4.64603 21.5013 4.87012C21.4564 5.09421 21.3463 5.30008 21.185 5.462L19.979 6.668C19.979 6.668 20.673 11.368 25.334 11.95ZM16 30H14V25C13.9992 24.2046 13.6829 23.442 13.1204 22.8796C12.558 22.3171 11.7954 22.0008 11 22H7C6.20459 22.0008 5.44199 22.3171 4.87956 22.8796C4.31712 23.442 4.00079 24.2046 4 25V30H2V25C2.00159 23.6744 2.52888 22.4036 3.46622 21.4662C4.40356 20.5289 5.67441 20.0016 7 20H11C12.3256 20.0016 13.5964 20.5289 14.5338 21.4662C15.4711 22.4036 15.9984 23.6744 16 25V30ZM9 10C9.59334 10 10.1734 10.1759 10.6667 10.5056C11.1601 10.8352 11.5446 11.3038 11.7716 11.8519C11.9987 12.4001 12.0581 13.0033 11.9424 13.5853C11.8266 14.1672 11.5409 14.7018 11.1213 15.1213C10.7018 15.5409 10.1672 15.8266 9.58527 15.9424C9.00333 16.0581 8.40013 15.9987 7.85195 15.7716C7.30377 15.5446 6.83524 15.1601 6.50559 14.6667C6.17595 14.1734 6 13.5933 6 13C6 12.2044 6.31607 11.4413 6.87868 10.8787C7.44129 10.3161 8.20435 10 9 10ZM9 8C8.01109 8 7.04439 8.29325 6.22215 8.84265C5.3999 9.39206 4.75904 10.173 4.3806 11.0866C4.00216 12.0002 3.90315 13.0055 4.09607 13.9755C4.289 14.9454 4.7652 15.8363 5.46447 16.5355C6.16373 17.2348 7.05464 17.711 8.02455 17.9039C8.99445 18.0969 9.99979 17.9978 10.9134 17.6194C11.827 17.241 12.6079 16.6001 13.1573 15.7779C13.7068 14.9556 14 13.9889 14 13C14 12.3434 13.8707 11.6932 13.6194 11.0866C13.3681 10.48 12.9998 9.92876 12.5355 9.46447C12.0712 9.00017 11.52 8.63188 10.9134 8.3806C10.3068 8.12933 9.65661 8 9 8Z" fill="white"/>
</svg>
