<svg width="32" height="32" viewBox="0 0 32 32" fill="none" xmlns="http://www.w3.org/2000/svg">
<g clip-path="url(#clip0_1428_4815)">
<path d="M23 2L24.593 5L28 5.414L25.5 7.667L26 11L23 9.125L20 11L20.5 7.667L18 5.414L21.5 5L23 2Z" fill="#F2C66C"/>
<path d="M22.7164 13.2491L20.7789 12.7511C20.4316 14.0894 19.6954 15.2947 18.6633 16.2148C17.6313 17.1349 16.3497 17.7285 14.9805 17.9205C13.6113 18.1126 12.2159 17.8945 10.9705 17.2939C9.72518 16.6932 8.6858 15.7369 7.98368 14.5459C7.28157 13.3548 6.94823 11.9823 7.02577 10.6019C7.10331 9.22141 7.58826 7.89492 8.41934 6.78995C9.25043 5.68499 10.3904 4.85113 11.6951 4.39373C12.9999 3.93633 14.411 3.87591 15.7501 4.2201L16.2491 2.2836C14.2974 1.77668 12.232 1.9406 10.3848 2.74902C8.53752 3.55743 7.01567 4.9634 6.06379 6.74099C5.11191 8.51857 4.78527 10.5646 5.13635 12.5502C5.48744 14.5358 6.49587 16.3457 7.99958 17.6891V30.0001L13.9996 26.0001L19.9996 30.0001V17.7079C21.3276 16.5242 22.2734 14.9721 22.7164 13.2491ZM17.9996 26.2628L13.9996 23.5963L9.99958 26.2628V19.0501C11.2406 19.6736 12.61 19.9988 13.9989 19.9999C15.3877 20.001 16.7576 19.6779 17.9996 19.0563V26.2628Z" fill="#F2C66C"/>
</g>
<defs>
<clipPath id="clip0_1428_4815">
<rect width="32" height="32" fill="white"/>
</clipPath>
</defs>
</svg>
