<svg width="974" height="1230" viewBox="0 0 974 1230" fill="none" xmlns="http://www.w3.org/2000/svg">
<g filter="url(#filter0_f_1586_4595)">
<circle cx="614.5" cy="614.66" r="214.5" fill="url(#paint0_linear_1586_4595)"/>
</g>
<g filter="url(#filter1_f_1586_4595)">
<path d="M480.943 687.42L567.881 334.12C567.882 334.118 567.882 334.116 567.883 334.114C569.28 328.565 572.681 323.606 577.55 320.09C582.424 316.57 588.461 314.721 594.646 314.876L594.673 314.877L594.701 314.877L884.506 314.877L884.513 314.877C888.532 314.864 892.498 315.696 896.12 317.307C899.741 318.918 902.918 321.264 905.426 324.162L905.428 324.165C907.971 327.096 909.762 330.519 910.679 334.173C911.596 337.827 911.617 341.626 910.74 345.288L910.739 345.292L860.603 556.735L859.953 559.477L862.771 559.477L1000.43 559.477L1000.43 559.477C1005.47 559.468 1010.41 560.788 1014.67 563.276C1018.92 565.755 1022.33 569.29 1024.52 573.462C1026.4 577.468 1027.12 581.861 1026.61 586.202C1026.1 590.551 1024.37 594.71 1021.58 598.253C1021.58 598.258 1021.58 598.263 1021.57 598.267L644.85 1060.26L644.807 1060.31L644.768 1060.37C642.431 1063.62 639.3 1066.32 635.621 1068.24C631.96 1070.15 627.863 1071.24 623.661 1071.4C620.063 1071.33 616.512 1070.64 613.184 1069.38C607.697 1067.2 603.167 1063.39 600.284 1058.56C597.4 1053.74 596.318 1048.17 597.19 1042.73C597.191 1042.73 597.191 1042.73 597.191 1042.73L649.934 720.676L650.358 718.088L647.736 718.088L507.76 718.088L507.732 718.088L507.704 718.089C503.585 718.193 499.499 717.408 495.764 715.799C492.029 714.19 488.752 711.803 486.177 708.833C483.603 705.864 481.8 702.391 480.895 698.686C479.991 694.98 480.006 691.132 480.939 687.433L480.943 687.42Z" stroke="url(#paint1_linear_1586_4595)" stroke-width="4.45553"/>
</g>
<path d="M480.943 687.42L567.881 334.12C567.882 334.118 567.882 334.116 567.883 334.114C569.28 328.565 572.681 323.606 577.55 320.09C582.424 316.57 588.461 314.721 594.646 314.876L594.673 314.877L594.701 314.877L884.506 314.877L884.513 314.877C888.532 314.864 892.498 315.696 896.12 317.307C899.741 318.918 902.918 321.264 905.426 324.162L905.428 324.165C907.971 327.096 909.762 330.519 910.679 334.173C911.596 337.827 911.617 341.626 910.74 345.288L910.739 345.292L860.603 556.735L859.953 559.477L862.771 559.477L1000.43 559.477L1000.43 559.477C1005.47 559.468 1010.41 560.788 1014.67 563.276C1018.92 565.755 1022.33 569.29 1024.52 573.462C1026.4 577.468 1027.12 581.861 1026.61 586.202C1026.1 590.551 1024.37 594.71 1021.58 598.253C1021.58 598.258 1021.58 598.263 1021.57 598.267L644.85 1060.26L644.807 1060.31L644.768 1060.37C642.431 1063.62 639.3 1066.32 635.621 1068.24C631.96 1070.15 627.863 1071.24 623.661 1071.4C620.063 1071.33 616.512 1070.64 613.184 1069.38C607.697 1067.2 603.167 1063.39 600.284 1058.56C597.4 1053.74 596.318 1048.17 597.19 1042.73C597.191 1042.73 597.191 1042.73 597.191 1042.73L649.934 720.676L650.358 718.088L647.736 718.088L507.76 718.088L507.732 718.088L507.704 718.089C503.585 718.193 499.499 717.408 495.764 715.799C492.029 714.19 488.752 711.803 486.177 708.833C483.603 705.864 481.8 702.391 480.895 698.686C479.991 694.98 480.006 691.132 480.939 687.433L480.943 687.42Z" stroke="url(#paint2_linear_1586_4595)" stroke-width="4.45553"/>
<defs>
<filter id="filter0_f_1586_4595" x="0" y="0.1604" width="1229" height="1229" filterUnits="userSpaceOnUse" color-interpolation-filters="sRGB">
<feFlood flood-opacity="0" result="BackgroundImageFix"/>
<feBlend mode="normal" in="SourceGraphic" in2="BackgroundImageFix" result="shape"/>
<feGaussianBlur stdDeviation="200" result="effect1_foregroundBlur_1586_4595"/>
</filter>
<filter id="filter1_f_1586_4595" x="450" y="284.639" width="607" height="816.988" filterUnits="userSpaceOnUse" color-interpolation-filters="sRGB">
<feFlood flood-opacity="0" result="BackgroundImageFix"/>
<feBlend mode="normal" in="SourceGraphic" in2="BackgroundImageFix" result="shape"/>
<feGaussianBlur stdDeviation="14" result="effect1_foregroundBlur_1586_4595"/>
</filter>
<linearGradient id="paint0_linear_1586_4595" x1="614.5" y1="400.16" x2="614.5" y2="829.16" gradientUnits="userSpaceOnUse">
<stop stop-color="#D72128"/>
<stop offset="1" stop-color="#310000"/>
</linearGradient>
<linearGradient id="paint1_linear_1586_4595" x1="583.728" y1="315.69" x2="877.804" y2="756.001" gradientUnits="userSpaceOnUse">
<stop stop-color="#A50000"/>
<stop offset="0.4375" stop-color="#020202"/>
<stop offset="1" stop-color="white" stop-opacity="0"/>
</linearGradient>
<linearGradient id="paint2_linear_1586_4595" x1="583.728" y1="315.69" x2="842.637" y2="793.806" gradientUnits="userSpaceOnUse">
<stop stop-color="#A50000"/>
<stop offset="0.484375" stop-color="#020202"/>
<stop offset="1" stop-color="white" stop-opacity="0"/>
</linearGradient>
</defs>
</svg>
