<svg width="32" height="33" viewBox="0 0 32 33" fill="none" xmlns="http://www.w3.org/2000/svg">
<g clip-path="url(#clip0_1428_4810)">
<path d="M16 16.1604H4V18.1604H16V16.1604Z" fill="#F2C66C"/>
<path d="M12 11.1604H2V13.1604H12V11.1604Z" fill="#F2C66C"/>
<path d="M29.9193 16.7668L26.9193 9.7668C26.8425 9.58678 26.7144 9.43333 26.551 9.32551C26.3876 9.2177 26.1962 9.16028 26.0004 9.1604H23.0004V7.1604C23.0004 6.89518 22.8951 6.64083 22.7075 6.45329C22.52 6.26576 22.2657 6.1604 22.0004 6.1604H6.00043V8.1604H21.0004V20.7166C20.5448 20.9812 20.1461 21.3334 19.8272 21.7528C19.5083 22.1722 19.2756 22.6506 19.1425 23.1604H12.8583C12.6149 22.2177 12.0361 21.3962 11.2303 20.8498C10.4245 20.3034 9.44715 20.0696 8.48133 20.1923C7.51552 20.315 6.6276 20.7857 5.98401 21.5162C5.34042 22.2467 4.98535 23.1868 4.98535 24.1604C4.98535 25.134 5.34042 26.0741 5.98401 26.8046C6.6276 27.5351 7.51552 28.0058 8.48133 28.1285C9.44715 28.2512 10.4245 28.0174 11.2303 27.471C12.0361 26.9246 12.6149 26.1031 12.8583 25.1604H19.1425C19.3606 26.0182 19.8583 26.7788 20.5569 27.3221C21.2556 27.8653 22.1154 28.1603 23.0004 28.1603C23.8855 28.1603 24.7453 27.8653 25.4439 27.3221C26.1426 26.7788 26.6403 26.0182 26.8583 25.1604H29.0004C29.2657 25.1604 29.52 25.055 29.7075 24.8675C29.8951 24.68 30.0004 24.4256 30.0004 24.1604V17.1604C30.0004 17.0251 29.9728 16.8911 29.9193 16.7668ZM9.00043 26.1604C8.60487 26.1604 8.21819 26.0431 7.88929 25.8233C7.5604 25.6036 7.30405 25.2912 7.15268 24.9258C7.0013 24.5603 6.96169 24.1582 7.03886 23.7702C7.11603 23.3823 7.30652 23.0259 7.58622 22.7462C7.86593 22.4665 8.22229 22.276 8.61025 22.1988C8.99822 22.1217 9.40035 22.1613 9.7658 22.3126C10.1313 22.464 10.4436 22.7204 10.6634 23.0493C10.8831 23.3782 11.0004 23.7648 11.0004 24.1604C10.9998 24.6906 10.7889 25.199 10.414 25.5739C10.039 25.9489 9.53068 26.1598 9.00043 26.1604ZM23.0004 11.1604H25.3412L27.4843 16.1604H23.0004V11.1604ZM23.0004 26.1604C22.6049 26.1604 22.2182 26.0431 21.8893 25.8233C21.5604 25.6036 21.3041 25.2912 21.1527 24.9258C21.0013 24.5603 20.9617 24.1582 21.0389 23.7702C21.116 23.3823 21.3065 23.0259 21.5862 22.7462C21.8659 22.4665 22.2223 22.276 22.6103 22.1988C22.9982 22.1217 23.4004 22.1613 23.7658 22.3126C24.1313 22.464 24.4436 22.7204 24.6634 23.0493C24.8831 23.3782 25.0004 23.7648 25.0004 24.1604C24.9998 24.6906 24.7889 25.199 24.414 25.5739C24.039 25.9489 23.5307 26.1598 23.0004 26.1604ZM28.0004 23.1604H26.8583C26.638 22.3039 26.1397 21.5447 25.4416 21.0018C24.7434 20.4589 23.8848 20.163 23.0004 20.1604V18.1604H28.0004V23.1604Z" fill="#F2C66C"/>
</g>
<defs>
<clipPath id="clip0_1428_4810">
<rect width="32" height="32" fill="white" transform="translate(0 0.1604)"/>
</clipPath>
</defs>
</svg>
