<svg width="367" height="60" viewBox="0 0 367 60" fill="none" xmlns="http://www.w3.org/2000/svg">
<g clip-path="url(#clip0_1428_4602)">
<path d="M364.806 10.4502C364.806 7.76195 363.833 5.38413 361.934 3.49029C360.035 1.58593 357.652 0.617965 354.974 0.617965C352.47 0.617965 350.224 1.45441 348.388 3.101L348.682 0.844174H322.931L312.657 25.7587L308.454 0.844174H282.877L280.951 16.6367C280.778 11.0078 279.015 6.35209 274.98 3.53238C271.566 1.15981 266.563 0.239197 260.545 0.239197H254.08C246.515 0.239197 240.339 1.79636 236.336 5.60508C234.142 7.68304 232.495 10.4817 231.306 13.8591C230.628 9.71892 228.813 6.31527 225.546 4.05844C222.132 1.75427 217.202 0.849434 211.268 0.849434H183.034L176.306 55.7603H205.277C212.757 55.7603 218.886 54.2347 222.942 50.5417C225.104 48.5742 226.735 45.9597 227.918 42.819C228.534 47.1538 230.291 50.7311 233.579 53.0563C236.951 55.4499 241.954 56.3705 247.962 56.3653H254.427C261.992 56.3705 268.184 54.7397 272.297 50.8416C274.97 48.3217 276.832 44.7497 278.042 40.3518L276.154 55.7603H296.286L297.843 43.1505L299.811 55.7603H318.57L323.263 44.1447L321.832 55.7603H341.97L346.82 16.037C347.167 16.5315 347.557 16.9944 347.993 17.4363C349.903 19.3459 352.291 20.3192 354.985 20.3192C357.678 20.3192 360.061 19.3302 361.955 17.4205C362.039 17.3364 362.118 17.2575 362.197 17.1575L362.986 16.2053C364.201 14.5377 364.822 12.5912 364.822 10.4502H364.806ZM210.469 23.9911L209.459 31.8611C209.012 35.2279 208.507 36.7167 208.275 37.0849C208.207 37.1901 207.549 37.8951 204.719 37.8951H198.98L201.347 18.7147H207.817C209.674 18.7147 210.437 18.9461 210.564 19.0093C210.6 19.0303 210.779 19.3354 210.779 20.2613C210.779 21.0609 210.679 22.2867 210.464 23.9964L210.469 23.9911ZM259.751 23.9806L258.741 31.8611C258.299 35.1911 257.804 36.6535 257.589 36.9744C257.452 37.1691 256.684 37.8372 253.938 37.8372H251.513C249.619 37.8372 248.835 37.6057 248.703 37.5426C248.667 37.511 248.488 37.1901 248.488 36.2169C248.488 35.512 248.577 34.3441 248.793 32.6239L249.803 24.7434C250.25 21.366 250.739 19.8931 250.944 19.5722L250.981 19.5195C251.071 19.3933 251.776 18.7094 254.606 18.7094H257.031C258.93 18.7094 259.719 18.9409 259.835 19.004C259.872 19.025 260.061 19.3565 260.061 20.3192C260.061 21.0662 259.972 22.2656 259.746 23.9806H259.751ZM88.3214 42.2982C88.3319 42.2088 88.3371 41.9826 88.3792 41.5565C88.4266 41.0935 88.4634 40.6359 88.4634 40.2518C88.4634 37.0218 87.4218 34.3704 85.4911 32.4082C88.537 29.962 90.3257 26.3163 90.8623 21.7448L91.3357 17.8467C91.4778 16.6472 91.5567 15.5793 91.5567 14.6587C91.5567 8.76148 88.7054 4.46877 83.2132 2.43816C80.12 1.30711 75.4906 0.844174 69.6512 0.844174H6.72839L0 55.755H20.4693L22.6261 38.4369H41.3068L43.4321 20.7085H24.7883L25.0408 18.7094H44.4211L39.8864 55.755H60.3609L62.0443 41.8143H66.0214C66.8315 41.8143 67.305 41.8826 67.547 41.951C67.5522 42.0247 67.5628 42.1404 67.5628 42.2825V42.6875C67.5628 42.7401 67.5522 42.898 67.5207 43.1978L65.9635 55.7655H86.7063L88.3214 42.4824V42.3088V42.2982ZM70.4561 19.5458C70.4561 19.5774 70.4403 19.7247 70.4088 20.0561L70.1984 21.8974C70.0931 22.9758 69.8669 23.3861 69.8091 23.4756C69.6512 23.565 69.0463 23.8228 67.5628 23.8228H64.2643L64.9219 18.7094H68.9779C69.6828 18.7094 70.151 18.7462 70.4456 18.7936C70.4509 18.8462 70.4509 18.904 70.4509 18.9724V19.5458H70.4561ZM154.185 37.8898L154.395 36.1538H177.379L179.384 19.7037H156.415L156.542 18.7094H180.215L182.34 0.844174H138.224L131.506 55.755H176.159L178.384 37.8898H154.19H154.185ZM109.396 37.8898L109.611 36.1538H132.585L134.589 19.7037H111.626L111.752 18.7094H135.425L137.545 0.844174H93.4347L86.7063 55.755H131.364L133.584 37.8898H109.39H109.396Z" fill="#D51317"/>
<g filter="url(#filter0_d_1428_4602)">
<path d="M42.2377 15.7372L43.6528 3.81652H9.35323L3.36133 52.7828H17.8439L20.0061 35.4752H38.6709L40.0861 23.6808H21.4159L22.426 15.7372H42.2324H42.2377ZM82.1924 5.23164C79.6252 4.28998 75.4483 3.81652 69.6563 3.81652H49.2396L43.2372 52.7828H57.7251L59.4085 38.8421H66.0159C67.5415 38.8421 68.6199 39.042 69.2512 39.447C70.1034 39.9415 70.5295 40.8832 70.5295 42.2773V42.6823C70.5295 42.9086 70.5085 43.1979 70.4612 43.5556L69.3143 52.7828H84.0705L85.3488 42.2773C85.3488 42.0511 85.3699 41.7144 85.4172 41.2672C85.4646 40.8201 85.4856 40.4834 85.4856 40.2572C85.4856 36.1696 83.4655 33.5025 79.4148 32.2452C84.4072 30.7617 87.2374 27.1476 87.9108 21.4029L88.3842 17.4943C88.521 16.3737 88.5842 15.4268 88.5842 14.664C88.5842 9.95046 86.4536 6.80458 82.1872 5.2369L82.1924 5.23164ZM73.4282 19.5775C73.4282 19.7143 73.4071 19.9826 73.3598 20.3876L73.1599 22.2078C72.981 24.007 72.4655 25.2169 71.608 25.8429C70.7557 26.469 69.409 26.7846 67.5678 26.7846H60.892L62.3071 15.7372H68.9829C70.5085 15.7372 71.5659 15.895 72.1498 16.2107C73.0021 16.7052 73.4282 17.6258 73.4282 18.9725V19.5775ZM90.0729 52.7828H128.749L130.228 40.8622H106.039L106.981 33.1816H129.954L131.232 22.676H108.259L109.132 15.7372H132.779L134.194 3.81652H96.0543L90.0571 52.7828H90.0729ZM134.857 52.7828H173.533L175.017 40.8622H150.828L151.77 33.1816H174.743L176.032 22.676H153.048L153.927 15.7372H177.584L178.999 3.81652H140.865L134.862 52.7828H134.857ZM223.857 6.50999C221.206 4.7161 217.008 3.81652 211.252 3.81652H185.643L179.652 52.7828H205.261C212.447 52.7828 217.67 51.2993 220.927 48.3376C224.183 45.3758 226.24 40.2993 227.092 33.1132L228.239 23.4809C228.507 21.2346 228.644 19.3934 228.644 17.9572C228.644 12.5229 227.05 8.70895 223.862 6.50473L223.857 6.50999ZM213.415 24.3594L212.405 32.2399C211.957 35.6067 211.394 37.7847 210.716 38.7737C209.727 40.1677 207.728 40.8622 204.724 40.8622H195.623L198.721 15.7372H207.822C209.89 15.7372 211.331 15.9845 212.141 16.479C213.22 17.105 213.756 18.3675 213.756 20.2509C213.756 21.2399 213.646 22.6076 213.42 24.3594H213.415ZM273.27 5.9734C270.619 4.13216 266.379 3.21155 260.534 3.21155H254.069C246.793 3.21155 241.564 4.72136 238.376 7.7515C235.183 10.7817 233.137 15.9634 232.242 23.281L231.033 33.25C230.764 35.4489 230.627 37.3796 230.627 39.042C230.627 44.5657 232.174 48.4323 235.283 50.6365C237.887 52.4777 242.106 53.3983 247.946 53.3983H254.411C261.639 53.3983 266.916 51.8254 270.246 48.6848C273.434 45.6757 275.48 40.5255 276.374 33.2552L277.584 23.2863C277.852 21.0873 277.989 19.1777 277.989 17.5627C277.989 12.039 276.416 8.17762 273.276 5.97866L273.27 5.9734ZM262.696 24.3594L261.686 32.2399C261.239 35.6067 260.676 37.7636 260.003 38.7053C258.972 40.0941 256.941 40.799 253.932 40.799H251.507C249.398 40.799 247.935 40.5465 247.13 40.052C246.052 39.426 245.515 38.1424 245.515 36.2117C245.515 35.3121 245.626 33.9865 245.852 32.2399L246.862 24.3594C247.309 20.9453 247.872 18.7673 248.545 17.8257C249.534 16.4316 251.554 15.7372 254.606 15.7372H257.031C259.151 15.7372 260.608 15.9845 261.413 16.479C262.491 17.105 263.028 18.3886 263.028 20.3192C263.028 21.2609 262.917 22.6076 262.691 24.3594H262.696ZM311.447 36.4748L305.939 3.81652H285.491L279.489 52.7828H293.64L297.48 21.666L302.33 52.7828H316.55L328.949 22.071L325.177 52.7828H339.323L345.326 3.81652H324.92L311.447 36.4748ZM358.893 5.57885C357.562 4.2479 355.937 3.57979 354.037 3.57979C352.138 3.57979 350.492 4.23738 349.145 5.56833C347.804 6.89928 347.141 8.52482 347.141 10.4397C347.141 12.3546 347.809 13.9801 349.145 15.3269C350.492 16.6683 352.123 17.3312 354.037 17.3312C355.952 17.3312 357.562 16.6578 358.893 15.3111C360.235 13.9644 360.897 12.3388 360.897 10.4397C360.897 8.54061 360.229 6.91506 358.893 5.57359V5.57885ZM357.993 14.4168C356.92 15.5005 355.6 16.0476 354.032 16.0476C352.465 16.0476 351.118 15.511 350.045 14.422C348.961 13.3436 348.419 12.0232 348.419 10.4397C348.419 8.85625 348.966 7.5516 350.05 6.47316C351.134 5.40525 352.459 4.86866 354.032 4.86866C355.605 4.86866 356.905 5.41051 357.983 6.48368C359.061 7.56212 359.598 8.87729 359.598 10.4344C359.598 11.9916 359.061 13.3226 357.988 14.4062L357.993 14.4168ZM357.657 9.03511C357.657 8.16184 357.373 7.53056 356.794 7.13601C356.352 6.89928 355.679 6.77828 354.779 6.77828H351.186V14.18H352.633V11.0499H354.101L355.758 14.18H357.446L355.652 11.0499C356.994 11.0499 357.657 10.3818 357.657 9.03511ZM355.826 9.74004C355.621 9.87681 355.289 9.93468 354.821 9.93468H352.638V7.85672H354.427C354.969 7.85672 355.353 7.90406 355.595 7.98297C356.016 8.12501 356.221 8.40909 356.221 8.82994C356.221 9.27184 356.094 9.57696 355.826 9.74004Z" fill="white"/>
</g>
</g>
<defs>
<filter id="filter0_d_1428_4602" x="1.87256" y="1.72278" width="363.491" height="56.1418" filterUnits="userSpaceOnUse" color-interpolation-filters="sRGB">
<feFlood flood-opacity="0" result="BackgroundImageFix"/>
<feColorMatrix in="SourceAlpha" type="matrix" values="0 0 0 0 0 0 0 0 0 0 0 0 0 0 0 0 0 0 127 0" result="hardAlpha"/>
<feOffset dx="1.48877" dy="1.48877"/>
<feGaussianBlur stdDeviation="1.48877"/>
<feColorMatrix type="matrix" values="0 0 0 0 0.113725 0 0 0 0 0.113725 0 0 0 0 0.105882 0 0 0 1 0"/>
<feBlend mode="normal" in2="BackgroundImageFix" result="effect1_dropShadow_1428_4602"/>
<feBlend mode="normal" in="SourceGraphic" in2="effect1_dropShadow_1428_4602" result="shape"/>
</filter>
<clipPath id="clip0_1428_4602">
<rect width="367" height="59.3403" fill="white" transform="translate(0 0.1604)"/>
</clipPath>
</defs>
</svg>
