<svg width="511" height="813" viewBox="0 0 511 813" fill="none" xmlns="http://www.w3.org/2000/svg">
<g clip-path="url(#clip0_1428_4753)">
<g clip-path="url(#clip1_1428_4753)">
<path opacity="0.63" d="M389.629 360.63L389.626 360.628L-196.068 -68.9159L-732.759 229.722L-460.293 925.433L300.76 694.807L300.763 694.806C335.694 684.575 367.191 664.797 391.767 637.661C416.343 610.525 433.039 577.089 440.006 541.056L440.008 541.044L440.012 541.031C450.788 500.477 451.901 465.236 443.473 435.212C435.046 405.195 417.075 380.363 389.629 360.63Z" stroke="#EEBA50" stroke-width="0.742601"/>
<path opacity="0.63" d="M125.09 336.847L125.087 336.845L-460.607 -92.6988L-997.298 205.939L-724.832 901.65L36.221 671.024L36.2243 671.023C71.1546 660.792 102.652 641.014 127.228 613.878C151.804 586.742 168.5 553.306 175.467 517.273L175.469 517.261L175.473 517.248C186.249 476.694 187.362 441.453 178.933 411.429C170.507 381.412 152.536 356.58 125.09 336.847Z" stroke="#EEBA50" stroke-width="0.742601"/>
</g>
</g>
<defs>
<clipPath id="clip0_1428_4753">
<rect width="582" height="801" fill="white" transform="matrix(0.999794 -0.0203184 -0.0203184 -0.999794 -71.0605 812.66)"/>
</clipPath>
<clipPath id="clip1_1428_4753">
<rect width="967.336" height="1222.44" fill="white" transform="matrix(-0.879034 0.476758 0.476758 0.879034 173.503 -565.597)"/>
</clipPath>
</defs>
</svg>
