<svg width="258" height="131" viewBox="0 0 258 131" fill="none" xmlns="http://www.w3.org/2000/svg">
<g clip-path="url(#clip0_1428_4759)">
<path d="M253.523 13.9635V13.9506C253.523 12.744 254.498 11.732 255.736 11.7277C256.982 11.7277 258 12.7267 258 13.9333V13.9419C258 15.1572 256.974 16.1648 255.736 16.1648C254.494 16.1648 253.523 15.1701 253.523 13.9592M257.703 13.9419V13.9333C257.703 12.8478 256.853 11.9742 255.74 11.9742C254.623 11.9742 253.774 12.8651 253.774 13.9462V13.9592C253.774 15.0534 254.619 15.9226 255.736 15.9226C256.853 15.9226 257.703 15.0318 257.703 13.9419ZM254.826 12.705H255.87C256.189 12.705 256.43 12.7959 256.599 12.9602C256.728 13.0856 256.797 13.2673 256.797 13.4749V13.4835C256.797 13.8641 256.59 14.1063 256.292 14.2187L256.87 15.0577H256.266L255.758 14.3052H255.352V15.062H254.83V12.705H254.826ZM255.865 13.8598C256.124 13.8598 256.266 13.717 256.266 13.5181V13.5051C256.266 13.2802 256.107 13.1635 255.852 13.1635H255.348V13.8641H255.865V13.8598Z" fill="white"/>
<path d="M204.752 61.5313L204.735 49.9237V32.9664L204.748 31.7642C204.748 31.3576 204.743 30.9684 204.735 30.5792V29.6148H204.713C204.571 25.3895 203.501 22.3579 202.302 20.5631C201.082 18.3878 198.99 16.5887 196.087 15.2264C193.232 13.8857 189.109 13.2413 183.485 13.2586C177.309 13.2759 172.534 14.422 169.295 16.6622C167.713 17.7607 166.354 19.1446 165.22 20.8053C164.405 22.0378 162.684 25.0176 162.386 28.6201L175.92 28.5812C176.369 26.0036 178.667 24.0186 181.423 24.0099H183.528C185.689 23.9969 187.574 25.2122 188.501 26.9724C188.712 27.3227 188.876 27.7551 188.98 28.2654C189.049 28.5595 189.087 28.8666 189.105 29.1736C189.122 29.4158 189.135 29.671 189.135 29.9391C188.074 30.1813 174.919 33.187 172.69 33.9525C171.253 34.3936 170.003 34.8607 168.946 35.3623C166.479 36.5387 164.53 38.2512 163.149 40.4612C161.782 42.6581 161.088 45.1795 161.088 47.9516C161.088 52.1509 162.61 55.6756 165.612 58.4304C168.584 61.1593 172.655 62.5346 177.701 62.5173C180.544 62.5087 183.256 61.9681 185.771 60.9128C186.922 60.4285 188.044 59.8187 189.135 59.1137V61.4837L204.752 61.5096V61.5313ZM188.73 46.399C188.38 47.6316 187.634 48.6652 186.465 49.5431C184.744 50.7973 183.002 51.42 181.13 51.4503C179.586 51.4719 178.361 51.0438 177.382 50.1356C176.412 49.2361 175.933 48.1981 175.92 46.9656C175.911 46.252 176.106 45.6292 176.507 45.0713C177.374 43.9642 179.086 43.4582 179.086 43.4582L189.075 40.8158V41.0018C189.122 44.5394 188.885 45.8887 188.734 46.399" fill="white"/>
<path d="M107.327 39.7778V35.9678C107.327 28.6633 103.976 21.8 98.3648 17.605L98.3433 17.5877C94.9921 14.8025 89.2688 13.1418 83.0366 13.1418C80.0435 13.1418 77.0719 13.5354 74.4453 14.2879C73.2635 14.6036 72.1077 15.0318 70.9992 15.5637C70.8138 15.6502 70.6369 15.7367 70.4644 15.8275L70.3911 15.8664C69.8304 16.1519 69.3042 16.4632 68.8255 16.7833C62.5588 20.8182 58.6729 28.1703 58.6729 35.9764V39.7865C58.6729 47.4413 62.2742 54.4862 68.3123 58.6337C69.4078 59.4381 70.706 60.1343 72.1853 60.7182C72.2759 60.7528 72.3664 60.7874 72.457 60.822L72.5778 60.8652C72.7028 60.9128 72.8322 60.9604 72.9659 61.0079C73.1169 61.0598 73.2678 61.1117 73.4231 61.1636C76.3085 62.1194 79.6381 62.6254 83.0453 62.6254C89.3982 62.6254 95.1776 60.9128 98.5072 58.0498C102.259 55.1869 105.028 51.0913 106.387 46.4379H88.6262C88.3372 49.4869 85.9134 51.8914 83.0065 51.8914C80.0995 51.8914 77.6757 49.4912 77.3867 46.4379H77.3565V45.8281V39.886H107.34V39.7822L107.327 39.7778ZM88.6478 32.6075H77.3436V29.9218C77.3436 26.5788 79.8796 23.8628 82.9935 23.8628C86.1075 23.8628 88.6435 26.5788 88.6435 29.9218V32.6075H88.6478Z" fill="white"/>
<path d="M34.7882 0.306152V22.505H18.8993V0.306152H0V61.5443H18.8993V38.3551H34.7882V61.5443H53.6875V0.306152H34.7882Z" fill="white"/>
<path d="M131.17 0.306152H112.271V61.5443H131.17V0.306152Z" fill="white"/>
<path d="M155.606 16.2471H136.707V61.5443H155.606V16.2471Z" fill="white"/>
<path d="M155.606 0.306152H136.707V11.4034H155.606V0.306152Z" fill="#D72128"/>
<path d="M209.781 61.5487V16.165H225.955V21.7093C225.955 21.7093 227.896 18.4138 232.058 15.979C236.763 13.2241 244.164 11.5505 252.104 16.5974L245.717 30.4755C245.717 30.4755 243.841 28.7975 239.778 28.5034C235.478 28.192 231.152 31.1847 229.573 34.4975C227.995 37.8102 227.551 42.5717 227.326 46.4078C227.102 50.2395 227.029 61.5443 227.029 61.5443H209.781V61.5487Z" fill="white"/>
<path d="M67.2729 130V71.543H81.0958C90.5067 71.543 94.6687 75.885 94.6687 84.9885V87.3282C94.6687 93.3396 92.6718 97.18 88.7556 98.7671V98.9358C93.336 100.523 95.583 104.528 95.583 111.127V116.14C95.583 125.157 90.7525 130 81.6738 130H67.2686H67.2729ZM76.4335 95.3463H80.0133C83.6793 95.3463 85.508 93.5904 85.508 89.1662V85.9097C85.508 81.9007 83.9251 79.894 80.8457 79.894H76.4335V95.3463ZM76.4335 121.649H81.6781C84.9257 121.649 86.4266 120.144 86.4266 115.889V110.794C86.4266 105.449 84.7618 103.697 80.5136 103.697H76.4335V121.649Z" fill="white"/>
<path d="M100.918 130V71.543H114.491C123.902 71.543 128.064 75.885 128.064 84.9885V88.5781C128.064 94.6716 126.067 98.5163 122.069 100.103V100.268C126.149 101.522 128.15 105.695 128.15 112.628V122.899C128.15 126.073 128.482 128.413 129.15 129.996H119.822C119.239 128.327 118.989 125.905 118.989 122.817V112.126C118.989 106.781 117.488 104.947 113.244 104.947H110.079V129.996H100.918V130ZM110.079 96.6004H113.408C117.074 96.6004 118.907 94.8446 118.907 90.4204V85.9097C118.907 81.9007 117.324 79.894 114.245 79.894H110.083V96.5961L110.079 96.6004Z" fill="white"/>
<path d="M134.478 130V71.543H159.462V79.894H143.638V95.3463H156.215V103.697H143.638V121.649H159.462V130H134.478Z" fill="white"/>
<path d="M184.443 130L182.86 118.561H172.284L170.702 130H162.205L171.698 71.5474H184.106L193.599 130H184.438H184.443ZM173.449 110.626H181.695L177.533 81.1483L173.453 110.626H173.449Z" fill="white"/>
<path d="M218.502 130L211.006 104.701L207.094 112.381V130H197.934V71.543H207.094V96.6783L218.588 71.543H227.917L217.005 93.0066L228.081 130H218.502Z" fill="white"/>
<path d="M60.7909 71.703H0V130.156H60.7909V71.703Z" fill="#D72128"/>
<path d="M7.92326 121.831V80.0282H16.023L22.6304 105.051V80.0282H28.4658V121.831H21.854L13.7544 91.3157V121.831H7.91895H7.92326Z" fill="white"/>
<path d="M32.8779 89.9448C32.8779 83.2544 36.3887 79.4357 42.8236 79.4357C49.2585 79.4357 52.7692 83.2587 52.7692 89.9448V111.919C52.7692 118.609 49.2542 122.428 42.8236 122.428C36.393 122.428 32.8779 118.605 32.8779 111.919V89.9448ZM46.2179 89.5253C46.2179 86.7791 45.0879 85.4038 42.8236 85.4038C40.5593 85.4038 39.4293 86.7791 39.4293 89.5253V112.338C39.4293 115.084 40.5636 116.46 42.8236 116.46C45.0835 116.46 46.2179 115.084 46.2179 112.338V89.5253Z" fill="white"/>
</g>
<defs>
<clipPath id="clip0_1428_4759">
<rect width="258" height="129.854" fill="white" transform="translate(0 0.306152)"/>
</clipPath>
</defs>
</svg>
