<svg width="32" height="32" viewBox="0 0 32 32" fill="none" xmlns="http://www.w3.org/2000/svg">
<g clip-path="url(#clip0_1428_4623)">
<path d="M23 2L24.593 5L28 5.414L25.5 7.667L26 11L23 9.125L20 11L20.5 7.667L18 5.414L21.5 5L23 2Z" fill="#A50000"/>
<path d="M22.7164 13.249L20.7789 12.751C20.4316 14.0893 19.6954 15.2946 18.6633 16.2147C17.6313 17.1348 16.3497 17.7283 14.9805 17.9204C13.6113 18.1124 12.2159 17.8944 10.9705 17.2937C9.72518 16.6931 8.6858 15.7368 7.98368 14.5457C7.28157 13.3547 6.94823 11.9822 7.02577 10.6017C7.10331 9.22129 7.58826 7.89479 8.41934 6.78983C9.25043 5.68486 10.3904 4.85101 11.6951 4.39361C12.9999 3.93621 14.411 3.87579 15.7501 4.21997L16.2491 2.28348C14.2974 1.77656 12.232 1.94048 10.3848 2.74889C8.53752 3.55731 7.01567 4.96328 6.06379 6.74086C5.11191 8.51845 4.78527 10.5644 5.13635 12.55C5.48744 14.5356 6.49587 16.3456 7.99958 17.689V30L13.9996 26L19.9996 30V17.7078C21.3276 16.5241 22.2734 14.9719 22.7164 13.249ZM17.9996 26.2627L13.9996 23.5962L9.99958 26.2627V19.05C11.2406 19.6735 12.61 19.9987 13.9989 19.9998C15.3877 20.0008 16.7576 19.6777 17.9996 19.0562V26.2627Z" fill="#A50000"/>
</g>
<defs>
<clipPath id="clip0_1428_4623">
<rect width="32" height="32" fill="white"/>
</clipPath>
</defs>
</svg>
