<svg width="32" height="32" viewBox="0 0 32 32" fill="none" xmlns="http://www.w3.org/2000/svg">
<path d="M25.4363 6.57072C22.9217 4.05472 19.5777 2.66805 16.015 2.66672C8.67366 2.66672 2.69899 8.63872 2.69633 15.9801C2.69499 18.3267 3.30833 20.6174 4.47366 22.6361L2.66699 29.3334L9.64433 27.6841C11.5897 28.7454 13.779 29.3041 16.0083 29.3054H16.0137C23.3537 29.3054 29.3283 23.3321 29.3323 15.9921C29.335 12.4334 27.951 9.08805 25.4363 6.57072ZM22.531 20.7387C22.2537 21.5161 20.895 22.2654 20.2843 22.3201C19.6737 22.3761 19.1017 22.5961 16.291 21.4881C12.9083 20.1547 10.7723 16.6867 10.607 16.4654C10.4403 16.2427 9.24833 14.6614 9.24833 13.0241C9.24833 11.3867 10.1083 10.5814 10.4137 10.2494C10.719 9.91605 11.079 9.83339 11.3017 9.83339C11.523 9.83339 11.7457 9.83339 11.939 9.84139C12.1763 9.85072 12.439 9.86272 12.6883 10.4161C12.9843 11.0747 13.631 12.7201 13.7137 12.8867C13.7963 13.0534 13.8523 13.2481 13.7417 13.4694C13.631 13.6907 13.575 13.8294 13.4097 14.0241C13.243 14.2187 13.0603 14.4574 12.911 14.6067C12.7443 14.7721 12.571 14.9534 12.7643 15.2854C12.959 15.6187 13.6257 16.7081 14.615 17.5894C15.887 18.7227 16.9577 19.0734 17.291 19.2414C17.6243 19.4081 17.8177 19.3801 18.0123 19.1574C18.207 18.9361 18.8443 18.1867 19.0657 17.8534C19.287 17.5201 19.5097 17.5761 19.815 17.6867C20.1203 17.7974 21.7563 18.6027 22.0883 18.7694C22.4217 18.9361 22.643 19.0187 22.7257 19.1574C22.8083 19.2947 22.8083 19.9614 22.531 20.7387Z" fill="#224130"/>
</svg>
