<svg width="144" height="31" viewBox="0 0 144 31" fill="none" xmlns="http://www.w3.org/2000/svg">
<path fill-rule="evenodd" clip-rule="evenodd" d="M8.96777 0.0601196H20.434L15.772 7.57799C15.564 7.92335 15.2631 8.20509 14.9027 8.39194C14.5424 8.57879 14.1366 8.66344 13.7304 8.63651C12.7858 8.63651 12.1825 8.28166 11.9021 7.57799L8.96777 0.0601196Z" fill="#006C32"/>
<path fill-rule="evenodd" clip-rule="evenodd" d="M122.11 4.94075L122.64 0.300715H144L143.47 4.94075H136.337L134.377 21.9943H127.253L129.197 4.94075H122.11ZM93.3389 21.9943L104.674 2.95302C105.818 1.02644 107.796 0.0621478 110.61 0.060143C113.401 0.060143 115.147 1.02444 115.848 2.95302L122.838 21.9943H115.391L113.672 17.2941H103.602L100.798 21.9943H93.3389ZM106.21 12.8947H112.057L109.501 5.8459L106.21 12.8947ZM71.6526 0.300715H88.7774C92.0581 0.300715 94.0245 1.08458 94.6765 2.65231C94.8939 3.17555 94.9355 4.01855 94.8015 5.18132L94.6034 6.93148C94.3657 9.01844 93.2556 10.4037 91.2729 11.0874C93.1743 11.6507 94.0102 12.9368 93.7807 14.9455L93.5461 17.1137C93.1743 20.3674 90.6554 21.9943 85.9893 21.9943H69.1692L71.6526 0.300715ZM77.2867 13.439L76.8479 17.2941H84.6729C85.7577 17.2129 86.3397 16.813 86.4219 16.0913L86.5804 14.705C86.6627 13.9832 86.1294 13.5622 84.9746 13.442L77.2867 13.439ZM78.2557 4.94075L77.823 8.73878H85.6967C86.8079 8.65859 87.4041 8.27668 87.4854 7.59305L87.6499 6.14661C87.6956 5.74366 87.4732 5.40385 86.9826 5.12118C86.7113 5.01163 86.4224 4.95053 86.1294 4.94075H78.2557ZM38.0339 21.9943H44.6522L45.2312 21.0681L49.875 13.5803C50.0262 13.3311 50.1996 13.0956 50.393 12.8766L50.6703 12.4316C51.3681 11.2798 52.4985 10.6994 54.0404 10.6994C55.5822 10.6994 56.5481 11.2798 56.9839 12.4316L57.1637 12.8917C57.281 13.063 57.3829 13.2441 57.4684 13.4329C57.4897 13.475 57.508 13.5171 57.5263 13.5622L60.4393 20.9959L60.8567 22.0033H67.4568L59.8939 2.70643C59.2113 0.902145 57.6725 0 55.2775 0C52.852 0 51.0918 0.902145 49.9969 2.70643L38.0339 21.9943ZM29.176 21.9943L31.6533 0.300715H38.7896L36.3123 21.9943H29.176ZM0 0H6.61831L6.98701 0.926202L9.92137 8.42002C10.014 8.66717 10.1347 8.90321 10.2809 9.12369L10.4546 9.56875C10.8914 10.7235 11.8827 11.3009 13.4286 11.3009C14.9745 11.3009 16.0918 10.7235 16.7804 9.56875L17.0638 9.11166C17.2158 8.94273 17.3534 8.76169 17.4751 8.57038C17.5056 8.52828 17.5361 8.48618 17.5635 8.44107L22.1677 1.0074L22.8137 0H29.4167L17.4569 19.2818C16.3599 21.0861 14.6139 21.9883 12.2189 21.9883C9.82386 21.9883 8.26984 21.0861 7.55682 19.2818L0 0Z" fill="#006C32"/>
<path fill-rule="evenodd" clip-rule="evenodd" d="M47.0049 22.0544H58.4711L55.5246 14.5365C55.2564 13.8328 54.6592 13.478 53.7237 13.478C53.3153 13.4499 52.907 13.534 52.544 13.7208C52.181 13.9076 51.8774 14.19 51.667 14.5365L47.0049 22.0544Z" fill="#006C32"/>
<path fill-rule="evenodd" clip-rule="evenodd" d="M16.2109 30.4684L16.6406 26.9891H19.2855C20.029 26.9891 20.3672 27.2447 20.3062 27.7529L20.0655 29.7046C20.0603 29.7477 20.0501 29.7901 20.0351 29.8309C19.9071 30.2549 19.5292 30.4684 18.9015 30.4684H16.2109ZM17.4298 29.7136H18.5724C18.6551 29.7173 18.738 29.7113 18.8193 29.6956C18.8638 29.6732 18.9021 29.6404 18.9308 29.6001C18.9595 29.5597 18.9777 29.513 18.9838 29.464C18.9874 29.4472 18.9874 29.4297 18.9838 29.4129L19.1697 27.9093C19.1514 27.8011 19.0265 27.7469 18.7949 27.7469H17.6735L17.4298 29.7136ZM22.7195 30.4684L23.1461 26.9891H24.2614L23.8348 30.4684H22.7195ZM26.8545 27.6657C26.8636 27.6055 26.8811 27.5469 26.9063 27.4913C27.0769 27.1515 27.4395 26.9801 27.9971 26.9801H30.2611L30.1667 27.7349H28.2043C28.0398 27.7349 27.9514 27.789 27.9392 27.8973L27.9088 28.1288C27.9046 28.1446 27.9046 28.1612 27.9088 28.1769C27.9088 28.2672 28.0093 28.3213 28.1708 28.3333H29.0484C29.2587 28.3286 29.4672 28.3719 29.6578 28.4596C29.7725 28.4979 29.8698 28.5752 29.9323 28.6776C29.9948 28.78 30.0184 28.9009 29.9991 29.019L29.9138 29.7226C29.8943 29.8584 29.8374 29.9863 29.7492 30.0924C29.6611 30.1985 29.5452 30.2786 29.414 30.3241C29.1893 30.4124 28.9489 30.4554 28.7071 30.4504H26.5101L26.6046 29.6956H28.5456C28.7223 29.6565 28.8168 29.5903 28.829 29.4941L28.8595 29.2415C28.8595 29.1453 28.7985 29.0911 28.6431 29.0761H27.729C27.5765 29.0887 27.4231 29.0684 27.2794 29.0164C27.1357 28.9645 27.0053 28.8822 26.8971 28.7754C26.8496 28.725 26.8138 28.665 26.7922 28.5996C26.7706 28.5341 26.7638 28.4648 26.7722 28.3965L26.8545 27.6657ZM32.5983 27.7259L32.6897 26.9801H36.0415L35.9501 27.7259H34.8348L34.4997 30.4594H33.3875L33.7226 27.7259H32.5983ZM38.5066 26.9801H41.1088C41.8218 26.9801 42.1499 27.2157 42.093 27.6868L42.0077 28.3814C41.9929 28.494 41.9505 28.6014 41.8841 28.6941C41.8177 28.7869 41.7294 28.8623 41.6268 28.9137C41.4572 29.007 41.269 29.0624 41.0753 29.0761H40.8803H40.7066L41.8036 30.4594H40.4872L39.4756 29.1693C39.4452 29.1318 39.4244 29.0876 39.4148 29.0406C39.4053 28.9935 39.4073 28.9448 39.4207 28.8987C39.4969 28.598 39.7254 28.4536 40.1459 28.4536H40.5969C40.795 28.4536 40.9016 28.3905 40.9169 28.2612L40.9565 27.9424C40.9565 27.8281 40.8864 27.759 40.7066 27.7409C40.6835 27.7365 40.6597 27.7365 40.6365 27.7409H39.5304L39.1952 30.4744H38.0891L38.5066 26.9801ZM44.4332 30.4594L44.8598 26.9801H45.975L45.5484 30.4594H44.4332ZM48.7144 26.9801H51.3867C51.9017 26.9801 52.2064 27.1064 52.3008 27.356C52.3327 27.4895 52.3327 27.6285 52.3008 27.762L52.2673 28.0446C52.2577 28.195 52.2023 28.339 52.1082 28.4576C52.0141 28.5762 51.8858 28.664 51.7402 28.7092C51.8067 28.7247 51.8695 28.7531 51.9249 28.7927C51.9803 28.8323 52.0273 28.8824 52.0629 28.94C52.0986 28.9976 52.1224 29.0616 52.1329 29.1283C52.1434 29.195 52.1404 29.2631 52.1241 29.3287L52.1058 29.6835C52.0428 30.2068 51.6467 30.4684 50.9174 30.4684H48.2939L48.7144 26.9801ZM49.5706 29.0851L49.4944 29.7046H50.7133C50.8809 29.7046 50.9753 29.6264 50.9875 29.5121L51.0149 29.2896C51.0149 29.1723 50.9479 29.1062 50.7681 29.0851H49.5706ZM49.7382 27.7259L49.662 28.3273H50.8809C51.0576 28.3273 51.149 28.2521 51.1643 28.1439L51.1917 27.9123C51.195 27.8778 51.1871 27.8431 51.169 27.8133C51.1509 27.7835 51.1236 27.7603 51.0911 27.7469C51.0483 27.7304 51.003 27.7213 50.9571 27.7199L49.7382 27.7259ZM54.8482 29.5963L55.1682 26.9891H56.2834L55.9787 29.5783C55.9787 29.6685 56.1067 29.7136 56.3413 29.7136H57.097C57.3225 29.7136 57.4535 29.6715 57.487 29.5873V29.5602L57.7917 26.9891H58.907L58.584 29.5963C58.5761 29.7711 58.5156 29.9397 58.4103 30.0805C58.2685 30.2194 58.0977 30.3262 57.9098 30.3932C57.7219 30.4602 57.5215 30.4859 57.3225 30.4684H55.8903C55.3632 30.4684 55.0219 30.3301 54.8695 30.0504C54.822 29.9035 54.8147 29.7469 54.8482 29.5963ZM61.2258 30.4684L61.6524 26.9891H62.7707L62.3441 30.4684H61.2258ZM65.0804 30.4684L65.4217 27.6657C65.4349 27.561 65.4709 27.4603 65.5271 27.3705C65.5834 27.2807 65.6586 27.204 65.7477 27.1455C65.9474 27.0074 66.1865 26.9358 66.4302 26.941C66.5521 26.9421 66.6736 26.9552 66.7929 26.9801C66.9276 27.0081 67.0512 27.0742 67.1486 27.1703C67.246 27.2664 67.313 27.3884 67.3413 27.5214L67.8807 29.5302L68.1854 26.9891H69.2427L68.8893 29.867C68.8762 29.9604 68.8421 30.0497 68.7893 30.1283C68.7366 30.2069 68.6666 30.2728 68.5845 30.321C68.3841 30.4469 68.1518 30.5147 67.9142 30.5165C67.4114 30.5165 67.1098 30.3331 67.0001 29.9151L66.4546 27.9153L66.1499 30.4564L65.0804 30.4684ZM71.5616 30.4684L71.9912 26.9891H74.6361C75.3796 26.9891 75.7178 27.2447 75.6569 27.7529L75.4162 29.7046C75.4109 29.7477 75.4007 29.7901 75.3857 29.8309C75.2577 30.2549 74.8799 30.4684 74.2522 30.4684H71.5616ZM72.7804 29.7136H73.9231C74.0058 29.7173 74.0886 29.7113 74.1699 29.6956C74.2145 29.6732 74.2528 29.6404 74.2815 29.6001C74.3102 29.5597 74.3284 29.513 74.3344 29.464C74.3381 29.4472 74.3381 29.4297 74.3344 29.4129L74.5203 27.9093C74.502 27.8011 74.3771 27.7469 74.1455 27.7469H73.0089L72.7804 29.7136ZM78.4054 27.7349C78.4148 27.6709 78.4322 27.6083 78.4572 27.5485C78.6217 27.1756 79.027 26.9891 79.676 26.9891H80.9923C81.7623 26.9891 82.1167 27.2377 82.0558 27.7349L81.8151 29.7136C81.7511 30.2158 81.3336 30.4684 80.5566 30.4684H79.225C78.9591 30.4848 78.693 30.4394 78.448 30.3361C78.3641 30.2939 78.2923 30.2315 78.239 30.1548C78.1858 30.0782 78.1529 29.9895 78.1433 29.897C78.1347 29.8392 78.1347 29.7805 78.1433 29.7226L78.4054 27.7349ZM79.4901 27.9755L79.3134 29.479C79.2951 29.6384 79.4079 29.7196 79.6516 29.7196H80.3342C80.5779 29.7196 80.709 29.6474 80.7273 29.5061L80.9131 27.9815C80.9345 27.8191 80.8217 27.7409 80.5779 27.7409H79.8954C79.6364 27.7349 79.5023 27.8131 79.481 27.9664L79.4901 27.9755ZM88.7137 29.7437L88.9575 27.7439C88.965 27.6902 88.9793 27.6377 89.0001 27.5875C89.1433 27.1906 89.5212 26.9861 90.1276 26.9861H92.4281L92.3276 27.7349H90.3195L90.2464 27.7529C90.1938 27.7598 90.1447 27.783 90.1064 27.8193C90.068 27.8555 90.0424 27.9028 90.0331 27.9544L89.9874 28.3423H92.2514L92.16 29.0941H89.8899L89.8503 29.47C89.832 29.6114 89.9204 29.6895 90.1093 29.7016H92.0869L91.9924 30.4564H89.8594C89.0276 30.4684 88.6436 30.2248 88.7046 29.7437H88.7137ZM94.6921 30.4684L95.0243 27.6657C95.0375 27.561 95.0735 27.4603 95.1297 27.3705C95.186 27.2807 95.2612 27.204 95.3503 27.1455C95.55 27.0074 95.7891 26.9358 96.0329 26.941C96.1547 26.9421 96.2762 26.9552 96.3955 26.9801C96.5297 27.0074 96.6532 27.0721 96.7514 27.1664C96.8497 27.2607 96.9186 27.3807 96.95 27.5124L97.4863 29.5211L97.791 26.9801H98.8484L98.4949 29.8579C98.4819 29.9513 98.4477 30.0406 98.395 30.1193C98.3422 30.1979 98.2722 30.2637 98.1902 30.312C97.9897 30.4379 97.7574 30.5056 97.5198 30.5075C97.0201 30.5075 96.7154 30.3241 96.6057 29.9061L96.0603 27.9063L95.7556 30.4473L94.6921 30.4684ZM101.265 29.7437L101.508 27.7439C101.517 27.6905 101.532 27.6382 101.551 27.5875C101.694 27.1906 102.072 26.9861 102.682 26.9861H104.982L104.891 27.7319H102.883L102.81 27.7499C102.757 27.7568 102.708 27.78 102.67 27.8163C102.631 27.8525 102.606 27.8998 102.596 27.9514L102.551 28.3393H104.821L104.729 29.0911H102.462L102.401 29.47C102.383 29.6114 102.471 29.6895 102.66 29.7016H104.638L104.543 30.4564H102.41C101.579 30.4684 101.195 30.2248 101.256 29.7437H101.265ZM107.664 26.9891H110.266C110.979 26.9891 111.307 27.2247 111.25 27.6958L111.165 28.3905C111.15 28.5031 111.108 28.6104 111.041 28.7032C110.975 28.7959 110.886 28.8713 110.784 28.9227C110.613 29.0159 110.424 29.0714 110.229 29.0851H110.034H109.864L110.961 30.4684H109.644L108.63 29.1693C108.599 29.1318 108.578 29.0876 108.569 29.0406C108.559 28.9935 108.561 28.9448 108.575 28.8987C108.651 28.598 108.879 28.4536 109.297 28.4536H109.751C109.949 28.4536 110.056 28.3905 110.071 28.2612L110.107 27.9424C110.107 27.8281 110.04 27.759 109.861 27.7409C109.837 27.7365 109.814 27.7365 109.791 27.7409H108.681L108.346 30.4744H107.234L107.664 26.9891ZM113.709 29.47L113.91 27.8371C113.915 27.7079 113.95 27.5816 114.012 27.4675C114.074 27.3535 114.161 27.2547 114.267 27.1786C114.582 27.0281 114.932 26.9628 115.281 26.9891H117.381L117.289 27.7349H115.233C115.186 27.7345 115.14 27.748 115.1 27.7738C115.061 27.7995 115.031 27.8363 115.013 27.8792L114.806 29.5693C114.824 29.6535 114.897 29.7016 115.025 29.7136H115.909C116.125 29.7136 116.25 29.6625 116.281 29.5602L116.415 28.4686H117.53L117.393 29.5783C117.386 29.7472 117.331 29.9108 117.235 30.0504C117.097 30.1988 116.927 30.3138 116.737 30.3863C116.548 30.4588 116.343 30.4869 116.141 30.4684H114.876C114.531 30.4988 114.185 30.4164 113.892 30.2338C113.789 30.1622 113.717 30.0548 113.691 29.9331C113.681 29.7785 113.687 29.6234 113.709 29.47ZM120.029 30.4564L120.455 26.9771H121.58L121.153 30.4564H120.029ZM123.515 30.4564L125.319 27.4041C125.415 27.2481 125.554 27.1218 125.719 27.0394C125.884 26.9571 126.07 26.9219 126.254 26.938C126.69 26.938 126.961 27.0944 127.068 27.4041L128.122 30.4564H126.958L126.699 29.7016H125.124L124.679 30.4564H123.515ZM125.541 29.0099H126.455L126.068 27.8792L125.541 29.0099Z" fill="#006C32"/>
</svg>
