<svg width="58" height="58" viewBox="0 0 58 58" fill="none" xmlns="http://www.w3.org/2000/svg">
<g clip-path="url(#clip0_1428_4930)">
<path d="M1.22695 28.4463C1.22561 33.2843 2.48974 38.0083 4.89344 42.172L0.99707 56.3983L15.5559 52.5809C19.5827 54.7731 24.0944 55.9217 28.6792 55.922H28.6913C43.8266 55.922 56.1471 43.606 56.1536 28.468C56.1565 21.1325 53.3024 14.2348 48.1169 9.04525C42.9323 3.85619 36.037 0.996962 28.6902 0.993614C13.553 0.993614 1.23342 13.309 1.22717 28.4463" fill="url(#paint0_linear_1428_4930)"/>
<path d="M0.245644 28.4374C0.244082 33.4495 1.55351 38.3424 4.04292 42.6552L0.00683594 57.3915L15.0877 53.4373C19.243 55.7029 23.9214 56.8973 28.6819 56.8991H28.6942C44.3725 56.8991 57.1356 44.1401 57.1423 28.4602C57.145 20.8611 54.1882 13.7154 48.8175 8.33998C43.4461 2.96523 36.3042 0.00310934 28.6942 -1.52588e-05C13.0132 -1.52588e-05 0.251894 12.7573 0.245644 28.4374ZM9.22663 41.9124L8.66353 41.0186C6.29643 37.2548 5.04703 32.9053 5.04882 28.4392C5.05395 15.4063 15.6606 4.80294 28.7031 4.80294C35.0193 4.80562 40.9551 7.2678 45.4197 11.7351C49.8841 16.2028 52.3407 22.1418 52.3392 28.4584C52.3333 41.4913 41.7265 52.096 28.6942 52.096H28.6848C24.4414 52.0937 20.2797 50.9541 16.6502 48.8006L15.7865 48.2884L6.83721 50.6348L9.22663 41.9122V41.9124Z" fill="url(#paint1_linear_1428_4930)"/>
<path d="M21.5843 16.5487C21.0518 15.3652 20.4914 15.3413 19.9849 15.3205C19.5703 15.3027 19.0962 15.304 18.6226 15.304C18.1486 15.304 17.3784 15.4823 16.7273 16.1932C16.0756 16.9047 14.2393 18.6241 14.2393 22.1212C14.2393 25.6185 16.7865 28.9982 17.1416 29.473C17.4971 29.9468 22.059 37.353 29.284 40.2022C35.2886 42.5699 36.5105 42.099 37.8137 41.9803C39.1171 41.862 42.0194 40.2613 42.6115 38.6015C43.204 36.9419 43.204 35.5193 43.0264 35.222C42.8487 34.9258 42.3747 34.7479 41.6638 34.3926C40.9528 34.0371 37.4581 32.3175 36.8067 32.0802C36.155 31.8432 35.6811 31.7249 35.2071 32.4366C34.733 33.1473 33.3718 34.7479 32.9569 35.222C32.5425 35.6972 32.1276 35.7563 31.417 35.4008C30.7057 35.0441 28.4164 34.2944 25.7005 31.8731C23.5874 29.989 22.1608 27.6623 21.7461 26.9505C21.3314 26.2399 21.7017 25.8547 22.0581 25.5005C22.3775 25.182 22.7692 24.6705 23.1249 24.2555C23.4794 23.8404 23.5976 23.5443 23.8347 23.0702C24.0719 22.5957 23.9532 22.1806 23.7758 21.8251C23.5976 21.4695 22.2164 17.9541 21.5843 16.5487Z" fill="white"/>
</g>
<defs>
<linearGradient id="paint0_linear_1428_4930" x1="28.5753" y1="56.3983" x2="28.5753" y2="0.993614" gradientUnits="userSpaceOnUse">
<stop stop-color="#1FAF38"/>
<stop offset="1" stop-color="#60D669"/>
</linearGradient>
<linearGradient id="paint1_linear_1428_4930" x1="28.5746" y1="57.3915" x2="28.5746" y2="-1.52588e-05" gradientUnits="userSpaceOnUse">
<stop stop-color="#F9F9F9"/>
<stop offset="1" stop-color="white"/>
</linearGradient>
<clipPath id="clip0_1428_4930">
<rect width="57.15" height="57.5819" fill="white"/>
</clipPath>
</defs>
</svg>
