<svg width="144" height="31" viewBox="0 0 144 31" fill="none" xmlns="http://www.w3.org/2000/svg">
<path fill-rule="evenodd" clip-rule="evenodd" d="M8.96777 0.0600586H20.434L15.772 7.57793C15.564 7.92329 15.2631 8.20503 14.9027 8.39188C14.5424 8.57873 14.1366 8.66338 13.7304 8.63645C12.7858 8.63645 12.1825 8.2816 11.9021 7.57793L8.96777 0.0600586Z" fill="white"/>
<path fill-rule="evenodd" clip-rule="evenodd" d="M122.11 4.94075L122.64 0.300715H144L143.47 4.94075H136.337L134.377 21.9943H127.253L129.197 4.94075H122.11ZM93.3389 21.9943L104.674 2.95302C105.818 1.02644 107.796 0.0621478 110.61 0.060143C113.401 0.060143 115.147 1.02444 115.848 2.95302L122.838 21.9943H115.391L113.672 17.2941H103.602L100.798 21.9943H93.3389ZM106.21 12.8947H112.057L109.501 5.8459L106.21 12.8947ZM71.6526 0.300715H88.7774C92.0581 0.300715 94.0245 1.08458 94.6765 2.65231C94.8939 3.17555 94.9355 4.01855 94.8015 5.18132L94.6034 6.93148C94.3657 9.01844 93.2556 10.4037 91.2729 11.0874C93.1743 11.6507 94.0102 12.9368 93.7807 14.9455L93.5461 17.1137C93.1743 20.3674 90.6554 21.9943 85.9893 21.9943H69.1692L71.6526 0.300715ZM77.2867 13.439L76.8479 17.2941H84.6729C85.7577 17.2129 86.3397 16.813 86.4219 16.0913L86.5804 14.705C86.6627 13.9832 86.1294 13.5622 84.9746 13.442L77.2867 13.439ZM78.2557 4.94075L77.823 8.73878H85.6967C86.8079 8.65859 87.4041 8.27668 87.4854 7.59305L87.6499 6.14661C87.6956 5.74366 87.4732 5.40385 86.9826 5.12118C86.7113 5.01163 86.4224 4.95053 86.1294 4.94075H78.2557ZM38.0339 21.9943H44.6522L45.2312 21.0681L49.875 13.5803C50.0262 13.3311 50.1996 13.0956 50.393 12.8766L50.6703 12.4316C51.3681 11.2798 52.4985 10.6994 54.0404 10.6994C55.5822 10.6994 56.5481 11.2798 56.9839 12.4316L57.1637 12.8917C57.281 13.063 57.3829 13.2441 57.4684 13.4329C57.4897 13.475 57.508 13.5171 57.5263 13.5622L60.4393 20.9959L60.8567 22.0033H67.4568L59.8939 2.70643C59.2113 0.902145 57.6725 0 55.2775 0C52.852 0 51.0918 0.902145 49.9969 2.70643L38.0339 21.9943ZM29.176 21.9943L31.6533 0.300715H38.7896L36.3123 21.9943H29.176ZM0 0H6.61831L6.98701 0.926202L9.92137 8.42002C10.014 8.66717 10.1347 8.90321 10.2809 9.12369L10.4546 9.56875C10.8914 10.7235 11.8827 11.3009 13.4286 11.3009C14.9745 11.3009 16.0918 10.7235 16.7804 9.56875L17.0638 9.11166C17.2158 8.94273 17.3534 8.76169 17.4751 8.57038C17.5056 8.52828 17.5361 8.48618 17.5635 8.44107L22.1677 1.0074L22.8137 0H29.4167L17.4569 19.2818C16.3599 21.0861 14.6139 21.9883 12.2189 21.9883C9.82386 21.9883 8.26984 21.0861 7.55682 19.2818L0 0Z" fill="white"/>
<path fill-rule="evenodd" clip-rule="evenodd" d="M47.0049 22.0543H58.4711L55.5246 14.5365C55.2564 13.8328 54.6592 13.4779 53.7237 13.4779C53.3153 13.4499 52.907 13.5339 52.544 13.7207C52.181 13.9076 51.8774 14.1899 51.667 14.5365L47.0049 22.0543Z" fill="white"/>
<path fill-rule="evenodd" clip-rule="evenodd" d="M16.2109 30.4683L16.6406 26.989H19.2855C20.029 26.989 20.3672 27.2446 20.3062 27.7528L20.0655 29.7045C20.0603 29.7476 20.0501 29.7899 20.0351 29.8308C19.9071 30.2548 19.5292 30.4683 18.9015 30.4683H16.2109ZM17.4298 29.7135H18.5724C18.6551 29.7172 18.738 29.7111 18.8193 29.6954C18.8638 29.6731 18.9021 29.6403 18.9308 29.5999C18.9595 29.5596 18.9777 29.5128 18.9838 29.4639C18.9874 29.447 18.9874 29.4296 18.9838 29.4128L19.1697 27.9092C19.1514 27.8009 19.0265 27.7468 18.7949 27.7468H17.6735L17.4298 29.7135ZM22.7195 30.4683L23.1461 26.989H24.2614L23.8348 30.4683H22.7195ZM26.8545 27.6656C26.8636 27.6054 26.8811 27.5467 26.9063 27.4912C27.0769 27.1514 27.4395 26.98 27.9971 26.98H30.2611L30.1667 27.7348H28.2043C28.0398 27.7348 27.9514 27.7889 27.9392 27.8972L27.9088 28.1287C27.9046 28.1445 27.9046 28.161 27.9088 28.1768C27.9088 28.267 28.0093 28.3212 28.1708 28.3332H29.0484C29.2587 28.3285 29.4672 28.3717 29.6578 28.4595C29.7725 28.4978 29.8698 28.575 29.9323 28.6774C29.9948 28.7799 30.0184 28.9008 29.9991 29.0188L29.9138 29.7225C29.8943 29.8583 29.8374 29.9862 29.7492 30.0923C29.6611 30.1983 29.5452 30.2785 29.414 30.3239C29.1893 30.4123 28.9489 30.4553 28.7071 30.4502H26.5101L26.6046 29.6954H28.5456C28.7223 29.6563 28.8168 29.5902 28.829 29.494L28.8595 29.2414C28.8595 29.1451 28.7985 29.091 28.6431 29.076H27.729C27.5765 29.0886 27.4231 29.0683 27.2794 29.0163C27.1357 28.9644 27.0053 28.8821 26.8971 28.7753C26.8496 28.7249 26.8138 28.6649 26.7922 28.5994C26.7706 28.534 26.7638 28.4647 26.7722 28.3963L26.8545 27.6656ZM32.5983 27.7258L32.6897 26.98H36.0415L35.9501 27.7258H34.8348L34.4997 30.4593H33.3875L33.7226 27.7258H32.5983ZM38.5066 26.98H41.1088C41.8218 26.98 42.1499 27.2155 42.093 27.6867L42.0077 28.3813C41.9929 28.4939 41.9505 28.6013 41.8841 28.694C41.8177 28.7868 41.7294 28.8622 41.6268 28.9136C41.4572 29.0068 41.269 29.0623 41.0753 29.076H40.8803H40.7066L41.8036 30.4593H40.4872L39.4756 29.1692C39.4452 29.1317 39.4244 29.0875 39.4148 29.0404C39.4053 28.9934 39.4073 28.9447 39.4207 28.8985C39.4969 28.5978 39.7254 28.4535 40.1459 28.4535H40.5969C40.795 28.4535 40.9016 28.3903 40.9169 28.261L40.9565 27.9423C40.9565 27.828 40.8864 27.7588 40.7066 27.7408C40.6835 27.7363 40.6597 27.7363 40.6365 27.7408H39.5304L39.1952 30.4743H38.0891L38.5066 26.98ZM44.4332 30.4593L44.8598 26.98H45.975L45.5484 30.4593H44.4332ZM48.7144 26.98H51.3867C51.9017 26.98 52.2064 27.1063 52.3008 27.3559C52.3327 27.4894 52.3327 27.6284 52.3008 27.7618L52.2673 28.0445C52.2577 28.1949 52.2023 28.3388 52.1082 28.4575C52.0141 28.5761 51.8858 28.6638 51.7402 28.7091C51.8067 28.7246 51.8695 28.753 51.9249 28.7926C51.9803 28.8322 52.0273 28.8823 52.0629 28.9399C52.0986 28.9975 52.1224 29.0615 52.1329 29.1282C52.1434 29.1949 52.1404 29.263 52.1241 29.3286L52.1058 29.6834C52.0428 30.2067 51.6467 30.4683 50.9174 30.4683H48.2939L48.7144 26.98ZM49.5706 29.085L49.4944 29.7045H50.7133C50.8809 29.7045 50.9753 29.6263 50.9875 29.512L51.0149 29.2895C51.0149 29.1722 50.9479 29.106 50.7681 29.085H49.5706ZM49.7382 27.7258L49.662 28.3272H50.8809C51.0576 28.3272 51.149 28.252 51.1643 28.1437L51.1917 27.9122C51.195 27.8776 51.1871 27.8429 51.169 27.8132C51.1509 27.7834 51.1236 27.7601 51.0911 27.7468C51.0483 27.7303 51.003 27.7211 50.9571 27.7197L49.7382 27.7258ZM54.8482 29.5962L55.1682 26.989H56.2834L55.9787 29.5782C55.9787 29.6684 56.1067 29.7135 56.3413 29.7135H57.097C57.3225 29.7135 57.4535 29.6714 57.487 29.5872V29.5601L57.7917 26.989H58.907L58.584 29.5962C58.5761 29.771 58.5156 29.9396 58.4103 30.0804C58.2685 30.2193 58.0977 30.326 57.9098 30.3931C57.7219 30.4601 57.5215 30.4857 57.3225 30.4683H55.8903C55.3632 30.4683 55.0219 30.3299 54.8695 30.0503C54.822 29.9034 54.8147 29.7468 54.8482 29.5962ZM61.2258 30.4683L61.6524 26.989H62.7707L62.3441 30.4683H61.2258ZM65.0804 30.4683L65.4217 27.6656C65.4349 27.5609 65.4709 27.4601 65.5271 27.3704C65.5834 27.2806 65.6586 27.2038 65.7477 27.1454C65.9474 27.0073 66.1865 26.9356 66.4302 26.9409C66.5521 26.942 66.6736 26.9551 66.7929 26.98C66.9276 27.008 67.0512 27.0741 67.1486 27.1702C67.246 27.2663 67.313 27.3883 67.3413 27.5213L67.8807 29.53L68.1854 26.989H69.2427L68.8893 29.8668C68.8762 29.9602 68.8421 30.0495 68.7893 30.1282C68.7366 30.2068 68.6666 30.2726 68.5845 30.3209C68.3841 30.4468 68.1518 30.5145 67.9142 30.5164C67.4114 30.5164 67.1098 30.333 67.0001 29.915L66.4546 27.9152L66.1499 30.4562L65.0804 30.4683ZM71.5616 30.4683L71.9912 26.989H74.6361C75.3796 26.989 75.7178 27.2446 75.6569 27.7528L75.4162 29.7045C75.4109 29.7476 75.4007 29.7899 75.3857 29.8308C75.2577 30.2548 74.8799 30.4683 74.2522 30.4683H71.5616ZM72.7804 29.7135H73.9231C74.0058 29.7172 74.0886 29.7111 74.1699 29.6954C74.2145 29.6731 74.2528 29.6403 74.2815 29.5999C74.3102 29.5596 74.3284 29.5128 74.3344 29.4639C74.3381 29.447 74.3381 29.4296 74.3344 29.4128L74.5203 27.9092C74.502 27.8009 74.3771 27.7468 74.1455 27.7468H73.0089L72.7804 29.7135ZM78.4054 27.7348C78.4148 27.6708 78.4322 27.6082 78.4572 27.5483C78.6217 27.1754 79.027 26.989 79.676 26.989H80.9923C81.7623 26.989 82.1167 27.2376 82.0558 27.7348L81.8151 29.7135C81.7511 30.2157 81.3336 30.4683 80.5566 30.4683H79.225C78.9591 30.4846 78.693 30.4393 78.448 30.336C78.3641 30.2937 78.2923 30.2314 78.239 30.1547C78.1858 30.078 78.1529 29.9894 78.1433 29.8969C78.1347 29.8391 78.1347 29.7803 78.1433 29.7225L78.4054 27.7348ZM79.4901 27.9753L79.3134 29.4789C79.2951 29.6383 79.4079 29.7195 79.6516 29.7195H80.3342C80.5779 29.7195 80.709 29.6473 80.7273 29.506L80.9131 27.9814C80.9345 27.819 80.8217 27.7408 80.5779 27.7408H79.8954C79.6364 27.7348 79.5023 27.813 79.481 27.9663L79.4901 27.9753ZM88.7137 29.7436L88.9575 27.7438C88.965 27.6901 88.9793 27.6376 89.0001 27.5874C89.1433 27.1905 89.5212 26.986 90.1276 26.986H92.4281L92.3276 27.7348H90.3195L90.2464 27.7528C90.1938 27.7597 90.1447 27.7829 90.1064 27.8191C90.068 27.8554 90.0424 27.9027 90.0331 27.9543L89.9874 28.3422H92.2514L92.16 29.094H89.8899L89.8503 29.4699C89.832 29.6112 89.9204 29.6894 90.1093 29.7015H92.0869L91.9924 30.4562H89.8594C89.0276 30.4683 88.6436 30.2247 88.7046 29.7436H88.7137ZM94.6921 30.4683L95.0243 27.6656C95.0375 27.5609 95.0735 27.4601 95.1297 27.3704C95.186 27.2806 95.2612 27.2038 95.3503 27.1454C95.55 27.0073 95.7891 26.9356 96.0329 26.9409C96.1547 26.942 96.2762 26.9551 96.3955 26.98C96.5297 27.0073 96.6532 27.072 96.7514 27.1663C96.8497 27.2606 96.9186 27.3806 96.95 27.5122L97.4863 29.521L97.791 26.98H98.8484L98.4949 29.8578C98.4819 29.9512 98.4477 30.0405 98.395 30.1191C98.3422 30.1977 98.2722 30.2636 98.1902 30.3119C97.9897 30.4378 97.7574 30.5055 97.5198 30.5074C97.0201 30.5074 96.7154 30.3239 96.6057 29.9059L96.0603 27.9062L95.7556 30.4472L94.6921 30.4683ZM101.265 29.7436L101.508 27.7438C101.517 27.6904 101.532 27.638 101.551 27.5874C101.694 27.1905 102.072 26.986 102.682 26.986H104.982L104.891 27.7318H102.883L102.81 27.7498C102.757 27.7567 102.708 27.7799 102.67 27.8161C102.631 27.8524 102.606 27.8997 102.596 27.9513L102.551 28.3392H104.821L104.729 29.091H102.462L102.401 29.4699C102.383 29.6112 102.471 29.6894 102.66 29.7015H104.638L104.543 30.4562H102.41C101.579 30.4683 101.195 30.2247 101.256 29.7436H101.265ZM107.664 26.989H110.266C110.979 26.989 111.307 27.2246 111.25 27.6957L111.165 28.3903C111.15 28.5029 111.108 28.6103 111.041 28.7031C110.975 28.7958 110.886 28.8712 110.784 28.9226C110.613 29.0158 110.424 29.0712 110.229 29.085H110.034H109.864L110.961 30.4683H109.644L108.63 29.1692C108.599 29.1317 108.578 29.0875 108.569 29.0404C108.559 28.9934 108.561 28.9447 108.575 28.8985C108.651 28.5978 108.879 28.4535 109.297 28.4535H109.751C109.949 28.4535 110.056 28.3903 110.071 28.261L110.107 27.9423C110.107 27.828 110.04 27.7588 109.861 27.7408C109.837 27.7363 109.814 27.7363 109.791 27.7408H108.681L108.346 30.4743H107.234L107.664 26.989ZM113.709 29.4699L113.91 27.837C113.915 27.7078 113.95 27.5815 114.012 27.4674C114.074 27.3534 114.161 27.2546 114.267 27.1785C114.582 27.028 114.932 26.9626 115.281 26.989H117.381L117.289 27.7348H115.233C115.186 27.7344 115.14 27.7479 115.1 27.7737C115.061 27.7994 115.031 27.8361 115.013 27.8791L114.806 29.5691C114.824 29.6533 114.897 29.7015 115.025 29.7135H115.909C116.125 29.7135 116.25 29.6624 116.281 29.5601L116.415 28.4685H117.53L117.393 29.5782C117.386 29.7471 117.331 29.9107 117.235 30.0503C117.097 30.1987 116.927 30.3137 116.737 30.3862C116.548 30.4587 116.343 30.4868 116.141 30.4683H114.876C114.531 30.4986 114.185 30.4162 113.892 30.2337C113.789 30.1621 113.717 30.0547 113.691 29.933C113.681 29.7784 113.687 29.6233 113.709 29.4699ZM120.029 30.4562L120.455 26.977H121.58L121.153 30.4562H120.029ZM123.515 30.4562L125.319 27.404C125.415 27.248 125.554 27.1217 125.719 27.0393C125.884 26.9569 126.07 26.9218 126.254 26.9379C126.69 26.9379 126.961 27.0943 127.068 27.404L128.122 30.4562H126.958L126.699 29.7015H125.124L124.679 30.4562H123.515ZM125.541 29.0098H126.455L126.068 27.8791L125.541 29.0098Z" fill="white"/>
</svg>
