<svg width="36" height="27" viewBox="0 0 36 27" fill="none" xmlns="http://www.w3.org/2000/svg">
<g opacity="0.5" clip-path="url(#clip0_1522_4595)">
<path d="M25.9508 10.4509L21.6296 17.5207C21.5876 17.5897 21.5285 17.6467 21.4581 17.6863C21.3877 17.7258 21.3082 17.7466 21.2275 17.7466C21.1467 17.7466 21.0672 17.7258 20.9968 17.6863C20.9264 17.6467 20.8673 17.5897 20.8253 17.5207L19.9849 16.1464C19.9468 16.0832 19.8944 16.0299 19.8319 15.9908C19.7695 15.9516 19.6987 15.9277 19.6252 15.9209C19.5518 15.9141 19.4778 15.9246 19.4092 15.9517C19.3406 15.9787 19.2793 16.0215 19.2302 16.0765L14.0484 21.8824C13.9693 21.9693 13.8607 22.0236 13.7437 22.0348C13.6268 22.046 13.5098 22.0133 13.4156 21.943C13.3215 21.8727 13.2568 21.7699 13.2343 21.6546C13.2117 21.5393 13.2329 21.4197 13.2937 21.3192L19.0477 11.9401C19.0897 11.8711 19.1488 11.8141 19.2192 11.7745C19.2897 11.735 19.3691 11.7142 19.4499 11.7142C19.5307 11.7142 19.6101 11.735 19.6805 11.7745C19.7509 11.8141 19.81 11.8711 19.852 11.9401L20.4693 12.9494C20.5116 13.0184 20.5709 13.0754 20.6415 13.1149C20.7121 13.1544 20.7917 13.1752 20.8726 13.1752C20.9535 13.1752 21.0331 13.1544 21.1037 13.1149C21.1743 13.0754 21.2336 13.0184 21.2759 12.9494L22.5128 10.9218C22.558 10.8478 22.5819 10.7629 22.5819 10.6762C22.5819 10.5896 22.558 10.5046 22.5128 10.4306L16.2878 0.224739C16.2455 0.155772 16.1862 0.0988083 16.1156 0.0592909C16.045 0.0197736 15.9655 -0.000976562 15.8846 -0.000976562C15.8037 -0.000976563 15.7241 0.0197736 15.6535 0.0592909C15.5829 0.0988083 15.5236 0.155772 15.4813 0.224739L0.0710629 25.4917C0.0273666 25.5631 0.00353572 25.645 0.00202926 25.7288C0.000522805 25.8125 0.0213953 25.8952 0.0624931 25.9682C0.103591 26.0412 0.163425 26.1019 0.235823 26.1441C0.30822 26.1863 0.390559 26.2084 0.474342 26.2081H35.5281C35.6119 26.2084 35.6942 26.1863 35.7666 26.1441C35.839 26.1019 35.8989 26.0412 35.9399 25.9682C35.981 25.8952 36.0019 25.8125 36.0004 25.7288C35.9989 25.645 35.9751 25.5631 35.9314 25.4917L26.7573 10.4509C26.715 10.3819 26.6557 10.325 26.5851 10.2855C26.5145 10.2459 26.435 10.2252 26.3541 10.2252C26.2731 10.2252 26.1936 10.2459 26.123 10.2855C26.0524 10.325 25.9931 10.3819 25.9508 10.4509Z" fill="white"/>
</g>
<defs>
<clipPath id="clip0_1522_4595">
<rect width="36" height="26.2086" fill="white"/>
</clipPath>
</defs>
</svg>
