<svg width="45" height="47" viewBox="0 0 45 47" fill="none" xmlns="http://www.w3.org/2000/svg">
<g clip-path="url(#clip0_1_22)">
<path fill-rule="evenodd" clip-rule="evenodd" d="M27.3265 19.2232C27.6263 19.823 28.2261 19.6231 28.7258 19.723C28.9258 19.723 29.1257 19.823 29.5255 19.823C29.8254 19.823 30.0253 19.723 30.3251 19.723C31.5246 19.723 32.824 19.6231 34.0235 19.6231C35.223 19.6231 36.3225 19.5231 37.522 19.5231C38.4216 19.5231 39.4211 19.6231 40.3207 19.6231C40.7563 19.6026 41.1928 19.6362 41.6201 19.723C41.6201 19.7495 41.6307 19.775 41.6494 19.7937C41.6682 19.8125 41.6936 19.823 41.7201 19.823H41.82C41.92 19.823 42.02 20.0229 42.02 20.0229H42.4198C42.5197 20.0229 42.6197 20.2228 42.6197 20.2228H42.8196C42.9196 20.3228 43.1195 20.6227 43.3194 20.6227C43.4193 20.6227 44.219 21.7222 44.4189 21.9221C44.544 22.0589 44.615 22.2366 44.6188 22.4219V22.6218C44.6961 23.2289 44.6276 23.8457 44.4189 24.4211C44.1468 24.8681 43.8099 25.2723 43.4193 25.6206L43.2194 25.8205H43.0195C42.9196 25.9205 42.9196 25.9205 42.8196 25.9205C42.6197 25.9205 42.5197 26.1204 42.1199 26.1204C42.02 26.1204 41.6201 26.0204 41.5202 26.1204C41.3203 26.4202 40.0208 26.1204 39.2212 26.1204C38.1217 26.1204 36.9222 26.2203 35.6228 26.2203C34.7232 26.2203 33.7236 26.3203 32.824 26.3203C32.2172 26.2821 31.6084 26.3497 31.0248 26.5202C31.0248 26.5467 31.0143 26.5721 30.9956 26.5909C30.9768 26.6096 30.9514 26.6202 30.9249 26.6202C30.8249 26.6202 30.8249 26.7201 30.725 26.7201H30.3251C30.2986 26.7201 30.2732 26.7307 30.2545 26.7494C30.2357 26.7681 30.2252 26.7936 30.2252 26.8201C29.6254 26.92 29.0257 26.8201 28.426 26.92L28.326 27.02C28.0262 27.12 27.3265 27.12 27.0266 27.4198C26.8267 28.7193 26.9266 30.0188 26.8267 31.4182C26.8267 31.718 26.7267 32.0179 26.7267 32.4178V33.4173C26.6108 34.0106 26.544 34.6124 26.5268 35.2166C26.5268 35.8163 26.7267 36.5161 26.7267 37.2158C26.8267 38.8151 26.6268 40.3145 26.8267 41.6139C26.8267 41.7139 26.9266 41.8139 26.9266 42.0138V42.2137C27.0687 42.8363 27.1025 43.4788 27.0266 44.1129C27.0001 44.1129 26.9747 44.1234 26.9559 44.1422C26.9372 44.1609 26.9266 44.1864 26.9266 44.2129C26.9059 44.4253 26.8376 44.6302 26.7267 44.8126C26.3444 45.4139 25.8725 45.9532 25.3274 46.4119C24.8587 46.4285 24.3896 46.395 23.928 46.312C23.4282 46.312 23.0284 46.5119 22.6286 46.4119C22.1288 46.312 21.8289 45.9122 21.4291 45.7122C21.0293 45.5123 20.4295 45.5123 20.1297 45.2124C20.1297 45.0125 19.9297 44.9126 19.7298 44.7127C19.6299 44.6127 19.7298 44.4128 19.6299 44.3128L19.43 44.2129C19.2301 43.813 19.2301 43.2133 19.0301 42.6135C18.6749 41.6216 18.5385 40.5645 18.6303 39.5148C18.6303 39.4148 18.7303 39.3149 18.7303 39.115C18.7303 38.5152 18.6303 38.0154 18.6303 37.2158C18.7135 36.4524 18.7469 35.6844 18.7303 34.9167C18.6927 34.332 18.5575 33.7576 18.3305 33.2174C18.7683 31.2503 18.9031 29.2278 18.7303 27.2199C18.3 26.9827 17.8216 26.846 17.3309 26.8201C15.6317 26.7201 13.9324 27.12 12.0332 26.92C11.3336 26.8201 10.6339 26.6202 9.83422 26.5202C8.73471 26.4202 7.13542 26.8201 6.33577 26.3203C6.13586 26.2203 5.53613 26.1204 5.13631 25.9205C4.83644 25.8205 4.53657 25.8205 4.33666 25.7205C4.13675 25.6206 3.53702 25.5206 3.13719 25.3207C3.03724 25.3207 3.13719 25.2207 3.03724 25.2207C2.98422 25.2207 2.93337 25.1997 2.89588 25.1622C2.85839 25.1247 2.83733 25.0739 2.83733 25.0208H2.63742C2.63742 24.9209 2.4375 24.521 2.13764 24.521C2.08462 24.521 2.03377 24.5 1.99628 24.4625C1.95879 24.425 1.93773 24.3741 1.93773 24.3211H1.73781L1.33799 23.9213C1.23804 23.8213 1.33799 23.6214 1.23804 23.4215C1.23804 23.3215 1.03812 23.3215 1.03812 23.3215V23.1216C0.911289 22.9143 0.828136 22.6832 0.79376 22.4425C0.759385 22.2019 0.774512 21.9568 0.838214 21.7222C0.838214 21.6957 0.848745 21.6703 0.86749 21.6515C0.886236 21.6328 0.91166 21.6222 0.93817 21.6222C1.03813 21.3224 1.03812 20.9225 1.13808 20.6227C1.13808 20.5227 1.33799 20.5227 1.33799 20.5227V20.3228L1.5379 20.2228V20.0229C1.63786 19.9229 1.83777 19.9229 1.93773 19.823C2.03768 19.723 2.03768 19.5231 2.13764 19.4232C2.23759 19.3232 2.4375 19.4232 2.53746 19.4232C2.53746 19.3966 2.54799 19.3712 2.56674 19.3525C2.58548 19.3337 2.61091 19.3232 2.63742 19.3232C2.96639 19.237 3.30015 19.1702 3.63697 19.1233C3.66348 19.1233 3.68891 19.1127 3.70765 19.094C3.7264 19.0753 3.73693 19.0498 3.73693 19.0233C4.06822 18.9731 4.40519 18.9731 4.73649 19.0233C4.83644 19.0233 4.9364 18.9234 5.13631 18.9234C5.70451 18.9096 6.27287 18.9431 6.83555 19.0233H7.43529C7.6352 19.0233 7.73516 19.1233 7.93507 19.1233C8.43485 19.1233 8.83467 19.0233 9.33444 19.0233H10.7338C11.4335 19.0233 12.0333 19.2232 12.633 19.2232C13.1983 19.1732 13.7669 19.1732 14.3322 19.2232C14.4322 19.2232 14.5321 19.3232 14.7321 19.3232H16.9311C17.5602 19.4233 18.2011 19.4233 18.8302 19.3232C19.2301 19.1233 19.2301 18.5235 19.33 18.0237C19.5299 17.0242 19.43 15.9246 19.5299 14.8251C19.6454 14.3669 19.7124 13.8978 19.7298 13.4256C19.9297 10.6268 19.6299 7.62805 19.9297 5.02913C20.0082 4.66814 20.0418 4.29882 20.0297 3.92959L20.1297 3.82963C20.2296 3.62971 20.1297 3.52975 20.2296 3.32984C20.2296 3.22988 20.4295 3.12992 20.4295 3.12992C20.5295 3.02996 20.4295 2.93 20.5295 2.73009C20.5295 2.63013 20.7294 2.53017 20.7294 2.53017C20.8293 2.43021 20.7294 2.33025 20.8293 2.13033L21.0293 1.93042C21.1292 1.7305 21.2292 1.43063 21.4291 1.33067H21.629V1.23071H21.8289C22.1548 1.00484 22.5336 0.867102 22.9284 0.830874C23.1283 0.730916 23.1283 0.830874 23.3282 0.730915C23.8631 0.669696 24.4045 0.703537 24.9275 0.830874C24.9275 0.857385 24.9381 0.88281 24.9568 0.901556C24.9756 0.920302 25.001 0.930833 25.0275 0.930833C25.2274 0.930833 25.3274 1.13075 25.5273 1.13075C25.7272 1.13075 26.027 1.43062 26.227 1.63054C26.3269 1.7305 26.4269 1.93042 26.6268 2.03038H26.8267C26.9266 2.13034 26.9266 2.33025 27.2265 2.43021C27.2784 2.43372 27.3272 2.45591 27.364 2.49267C27.4007 2.52942 27.4229 2.57826 27.4264 2.63013C27.6263 2.83004 27.6263 3.22988 27.8262 3.62971V3.82963C27.9262 3.92959 27.9262 4.12951 28.0262 4.52934C28.137 4.7117 28.2053 4.91669 28.2261 5.12909C28.326 6.12867 28.1261 7.62805 28.1261 8.62764V9.72718C28.0262 10.3269 27.8262 11.0266 27.7263 11.6264C27.6263 12.526 27.8262 13.3257 27.7263 14.1254C27.6263 14.925 27.4264 15.8246 27.3265 16.6243C27.2472 17.0527 27.2137 17.4883 27.2265 17.9238C27.2265 18.1237 27.1266 18.2237 27.1266 18.5235C27.2265 19.0233 27.3265 19.0233 27.3265 19.2232Z" fill="#090909"/>
</g>
<defs>
<clipPath id="clip0_1_22">
<rect width="43.89" height="45.75" fill="white" transform="translate(0.77002 0.689941)"/>
</clipPath>
</defs>
</svg>
