<svg width="60" height="61" viewBox="0 0 60 61" fill="none" xmlns="http://www.w3.org/2000/svg">
<g clip-path="url(#clip0_1_392)">
<path d="M51.8866 14.1178L33.0137 3.22018C32.0673 2.6742 31.014 2.39448 29.9568 2.37561C29.9551 2.37561 29.9544 2.37561 29.953 2.37561C29.9517 2.37561 29.9501 2.37561 29.9488 2.37561C28.892 2.39448 27.8387 2.6742 26.8915 3.22018L8.01841 14.1169C6.05856 15.2488 4.85083 17.3392 4.85083 19.6032V41.3949C4.85083 43.659 6.05856 45.751 8.01841 46.8814L26.8915 57.7789C27.8387 58.3248 28.8911 58.6045 29.9488 58.6235V58.6242C29.9501 58.6242 29.9517 58.6235 29.953 58.6235C29.9544 58.6235 29.9552 58.6242 29.9568 58.6242V58.6235C31.0131 58.6045 32.0673 58.3257 33.0137 57.7789L51.8866 46.8821C53.847 45.751 55.0552 43.6599 55.0552 41.3959V19.6042C55.0552 17.3402 53.8469 15.2481 51.8866 14.1178Z" fill="#1A9F49"/>
<path d="M45.3254 29.7129C45.1354 22.2405 38.9774 16.2397 31.4017 16.2397C23.912 16.2397 17.8071 22.101 17.4856 29.4528C17.4763 29.6555 17.4698 29.8583 17.4698 30.0628C17.4698 32.6752 18.1988 35.117 19.4677 37.1999L16.9564 44.62L24.6675 42.1677C26.6655 43.2629 28.9582 43.8891 31.4015 43.8891C39.0954 43.8891 45.3322 37.6985 45.3322 30.0627C45.3323 29.9447 45.3282 29.8293 45.3254 29.7129ZM31.4017 41.685C29.0237 41.685 26.8097 40.9766 24.9585 39.7608L20.4556 41.1932L21.9205 36.8765C20.5176 34.9599 19.6903 32.6032 19.6903 30.0628C19.6903 29.6821 19.7104 29.3073 19.746 28.936C20.3179 23.0534 25.3247 18.4389 31.4017 18.4389C37.5519 18.4389 42.6079 23.1689 43.0751 29.1533C43.0981 29.4529 43.1154 29.7574 43.1154 30.0612C43.1154 36.4709 37.86 41.685 31.4017 41.685Z" fill="white"/>
<path d="M37.3826 32.8522C37.0385 32.6819 35.3582 31.8614 35.0475 31.7502C34.7334 31.6371 34.5076 31.5799 34.2791 31.9204C34.0507 32.2583 33.3951 33.0207 33.1967 33.2465C32.9965 33.4718 32.7971 33.5008 32.4574 33.3312C32.1133 33.1644 31.0147 32.8044 29.7103 31.6498C28.6929 30.7524 28.01 29.6427 27.8099 29.302C27.6105 28.9658 27.7907 28.7826 27.9608 28.6123C28.1144 28.4618 28.3044 28.2161 28.4709 28.0202C28.5234 27.9611 28.5624 27.909 28.5984 27.8567C28.6801 27.7326 28.7358 27.6146 28.8141 27.4545C28.9288 27.2286 28.8731 27.031 28.7879 26.8598C28.7024 26.6929 28.0165 25.0228 27.7319 24.3451C27.4471 23.6657 24.2033 25.3334 24.2033 26.9993C24.2033 27.3937 24.2747 27.7848 24.38 28.1544C24.7261 29.3523 25.4688 30.332 25.5989 30.5074C25.7695 30.7316 27.9608 34.2645 31.434 35.6216C34.9062 36.9786 34.9062 36.5277 35.5308 36.4687C36.1554 36.413 38.1217 33.3884 38.0361 33.2463C37.9481 33.1053 37.7222 33.0207 37.3826 32.8522Z" fill="white"/>
</g>
<defs>
<clipPath id="clip0_1_392">
<rect width="60" height="60" fill="white" transform="translate(0 0.5)"/>
</clipPath>
</defs>
</svg>
